<?xml version="1.0" standalone="no"?>
<!DOCTYPE svg PUBLIC "-//W3C//DTD SVG 20010904//EN"
 "http://www.w3.org/TR/2001/REC-SVG-20010904/DTD/svg10.dtd">
<svg version="1.0" xmlns="http://www.w3.org/2000/svg"
 width="500.000000pt" height="500.000000pt" viewBox="0 0 500.000000 500.000000"
 preserveAspectRatio="xMidYMid meet">

<g transform="translate(0.000000,500.000000) scale(0.100000,-0.100000)"
fill="#5c7cfa" stroke="none">
<path d="M2633 4949 c-147 -35 -445 -579 -724 -1319 -40 -107 -77 -198 -82
-201 -5 -4 -46 -14 -91 -24 -189 -41 -470 -116 -478 -127 -15 -25 -27 -106
-21 -144 25 -160 158 -241 340 -207 41 8 77 13 79 11 1 -2 -15 -60 -37 -128
-160 -500 -294 -1050 -355 -1453 -31 -206 -43 -537 -25 -657 15 -96 59 -224
102 -297 19 -32 72 -96 119 -144 71 -71 101 -93 180 -133 211 -104 405 -99
630 14 381 192 819 730 1258 1546 93 173 256 515 328 686 53 129 62 137 141
122 126 -23 215 -134 243 -306 10 -67 13 -148 5 -148 -3 0 -26 13 -53 30 l-47
29 -3 -34 c-6 -65 69 -285 97 -285 21 0 124 129 158 198 20 39 34 74 31 77 -2
3 -27 -2 -54 -10 -73 -22 -76 -21 -57 28 12 30 17 75 17 157 0 106 -2 121 -30
191 -35 86 -97 185 -174 274 -56 65 -120 155 -120 168 0 4 21 17 47 29 87 38
204 10 271 -67 66 -75 105 -196 100 -311 l-3 -64 -54 36 -54 37 7 -58 c8 -68
49 -196 78 -243 l21 -34 44 44 c68 67 159 215 142 233 -3 2 -29 -2 -59 -10
-30 -8 -56 -13 -58 -11 -2 2 4 28 12 57 56 199 5 365 -180 595 -103 128 -127
167 -144 236 l-12 45 -61 -26 c-59 -24 -70 -25 -232 -23 -215 3 -309 -12 -421
-67 -62 -31 -97 -57 -148 -111 -36 -39 -66 -75 -66 -80 0 -26 -18 -5 -34 40
-10 28 -22 52 -26 55 -23 14 -92 -158 -106 -265 -6 -45 -5 -50 13 -50 59 0
244 69 286 108 18 16 15 17 -44 38 l-64 21 50 36 c195 143 381 152 489 25 53
-61 74 -151 39 -162 -10 -3 -99 -4 -198 -3 -139 1 -195 -3 -248 -16 -125 -31
-240 -104 -311 -197 -21 -28 -42 -47 -46 -43 -4 4 -15 29 -25 56 -10 26 -21
47 -25 47 -11 0 -76 -149 -89 -202 -6 -26 -11 -63 -11 -84 l0 -37 45 6 c82 12
253 85 262 114 2 5 -22 17 -52 27 -31 9 -53 21 -50 26 18 29 180 120 239 134
16 4 58 7 92 7 79 0 137 -24 186 -79 l37 -41 -25 -58 c-67 -151 -244 -497
-344 -673 -215 -375 -434 -681 -640 -893 -135 -140 -244 -225 -355 -279 -178
-85 -256 -56 -302 113 -23 86 -23 365 0 536 57 416 200 974 394 1537 66 190
70 200 98 208 71 19 825 178 844 178 12 0 31 10 42 21 19 19 21 30 17 83 -10
113 -73 207 -173 256 -46 23 -61 25 -175 24 -100 -1 -151 -8 -255 -32 -71 -16
-131 -29 -131 -28 -1 0 33 83 76 183 153 360 319 665 421 777 58 63 60 84 20
148 -91 144 -364 256 -528 217z"/>
</g>
</svg>
