<?xml version="1.0" encoding="utf-8"?>
<!-- Generator: Adobe Illustrator 27.5.0, SVG Export Plug-In . SVG Version: 6.00 Build 0)  -->
<svg version="1.1" xmlns="http://www.w3.org/2000/svg" xmlns:xlink="http://www.w3.org/1999/xlink" x="0px" y="0px"
	 viewBox="0 0 500 500" style="enable-background:new 0 0 500 500;" xml:space="preserve">
<g id="BACKGROUND">
</g>
<g id="OBJECTS">
	<g>
		<g>
			<path style="fill:#A6CDED;" d="M445.273,252.581c-12.588-18.188-28.593-33.349-37.931-54.146
				c-13.102-29.181-11.615-66.353-28.297-92.799c-11.231-17.804-29.731-28.103-48.367-29.303
				c-18.636-1.2-37.253,6.142-52.867,18.353c-17.563,13.734-31.712,33.458-50.396,44.891c-24.91,15.243-54.309,13.794-82.297,13.872
				c-27.988,0.078-65.544-3.754-79.59,24.542c-14.046,28.296,5.233,55.395,1.207,92.094c-4.027,36.7-28.708,36.437-15.044,76.408
				s50.393,54.695,83.084,51.786c46.774-4.163,71.291-52.21,132.925-56.618s82.856,14.186,121.812,12.931
				c13.663-0.44,27.556-0.926,40.53-6.06c12.974-5.134,25.132-15.685,30.102-30.894
				C467.326,295.653,457.861,270.768,445.273,252.581z"/>
		</g>
		<g>
			<path style="fill:#A6CDED;" d="M312.818,352.283c-19.181-8.512-43.629-7.596-60.339,2.548
				c-8.647,6.429-17.198,13.752-22.816,24.098c-5.618,10.346-7.773,24.362-3.05,35.367c4.434,10.332,13.755,15.925,22.828,19.312
				c16.442,6.139,34.105,7.231,50.962,3.15c10.964-2.654,21.898-7.71,29.95-17.263c8.053-9.553,12.703-24.251,9.645-37.505
				C336.554,367.065,324.657,357.536,312.818,352.283z"/>
		</g>
		<g>
			<path style="fill:#A6CDED;" d="M165.868,145.103c17.154-1.454,38.881-9.701,45.657-29.191c2.922-12.54-0.966-26.561-8.335-35.922
				c-7.37-9.361-17.748-14.461-28.221-16.311c-14.936-2.638-31.298,1.491-42.067,14.526c-10.768,13.035-14.039,35.868-4.989,50.758
				C136.288,142.745,151.936,146.284,165.868,145.103z"/>
		</g>
		<g>
			<path style="fill:#A6CDED;" d="M464.783,173.311c-2.746-10.993-8.375-20.614-14.969-28.75
				c-4.926-6.079-10.634-11.57-17.355-13.84c-6.721-2.27-15.151,0.738-19.912,7.014c-6.149,9.045-8.135,21.68-6.687,33.347
				c1.449,11.667,6.038,22.453,11.758,31.916c5.372,8.887,12.48,17.252,21.385,18.759c9.241,1.563,18.675-5.139,23.405-15.053
				C467.139,196.791,467.529,184.304,464.783,173.311z"/>
		</g>
		<g>
			<path style="fill:#A6CDED;" d="M212.077,381.061c-2.909-1.793-6.291-2-9.536-1.74c-5.072,0.406-10.2,1.934-14.403,5.46
				c-4.203,3.526-7.369,9.259-7.615,15.52c-0.247,6.261,2.868,12.786,7.721,14.652c3.605,1.386,7.503,0.188,11.102-1.224
				c4.919-1.931,9.898-4.39,13.501-8.95c3.604-4.56,4.622-8.539,4.311-14.229C217.31,386.545,214.986,382.854,212.077,381.061z"/>
		</g>
		<g>
			<path style="fill:#A6CDED;" d="M243.161,107.341c5.449-3.104,11.618-12.548,7.269-20.675c-3.988-4.758-8.211-6.247-13.743-6.786
				s-11.592,3.295-13.12,9.873c-1.098,4.728,0.33,10.004,3.053,13.597C230.719,108.758,237.711,110.445,243.161,107.341z"/>
		</g>
	</g>
	<g>
		<g>
			<path style="fill:#3A5065;" d="M128.707,241.444c0,0-60.709-42.509-85.127-31.699c-9.957,7.783,36.034,33.669,37.931,48.371
				c1.896,14.702-40.776,39.623-36.983,51.73c3.793,12.107,70.923-24.824,84.179-38.14V241.444z"/>
			<g>
				<g>
					<path style="fill:#2B2B2B;" d="M89.97,265.294c-1.975,0.108-3.951,0.209-5.926,0.305c-0.988,0.048-1.977,0.087-2.965,0.136
						c-0.57,0.028-1.135,0.049-1.698,0.1c-0.09,0.155-0.194,0.314-0.288,0.47c0.528,0.031,1.057,0.038,1.596,0.03
						c0.884-0.013,1.768-0.036,2.652-0.061c1.794-0.051,3.588-0.113,5.381-0.198c3.534-0.168,7.067-0.379,10.596-0.632
						c7.085-0.509,14.155-1.206,21.205-2.074c2.732-0.337,5.459-0.708,8.183-1.096v-0.825c-5.868,0.839-11.749,1.586-17.647,2.185
						C104.044,264.345,97.012,264.907,89.97,265.294z"/>
					<path style="fill:#2B2B2B;" d="M75.703,276.72c2.071-0.039,4.142-0.119,6.21-0.237c4.143-0.238,8.276-0.642,12.389-1.197
						c8.213-1.108,16.342-2.836,24.293-5.172c3.406-1.001,6.779-2.115,10.112-3.337v-0.78c-6.777,2.495-13.708,4.567-20.756,6.143
						c-8.107,1.813-16.348,3.001-24.635,3.564c-2.289,0.156-4.58,0.264-6.873,0.323c-1.718,0.044-3.445,0-5.166,0.027
						c-0.213,0.225-0.434,0.451-0.651,0.676C72.314,276.811,74.022,276.753,75.703,276.72z"/>
					<path style="fill:#2B2B2B;" d="M95.463,247.047c7.838,0.101,15.675,0.38,23.499,0.852c3.251,0.196,6.499,0.438,9.745,0.701
						v-0.834c-6.684-0.535-13.379-0.938-20.08-1.189c-7.833-0.294-15.674-0.371-23.511-0.259c-3.538,0.051-7.092,0.103-10.63,0.308
						c0.172,0.186,0.344,0.373,0.511,0.558c2.877-0.038,5.754-0.108,8.63-0.143C87.572,246.995,91.518,246.996,95.463,247.047z"/>
					<path style="fill:#2B2B2B;" d="M78.69,237.553c-4.049,0.299-8.125,0.668-12.146,1.3c0.185,0.169,0.371,0.338,0.555,0.507
						c3.328-0.352,6.653-0.727,9.993-0.973c4.514-0.332,9.04-0.513,13.567-0.554c9.003-0.082,18.015,0.426,26.95,1.528
						c3.46,0.427,6.907,0.953,10.34,1.56c-0.412-0.282-0.99-0.674-1.713-1.158c-6.73-1.118-13.517-1.898-20.326-2.334
						C96.848,236.847,87.747,236.885,78.69,237.553z"/>
					<path style="fill:#2B2B2B;" d="M107.543,242.589c-8.428-0.4-16.872-0.424-25.303-0.087c-2.335,0.093-4.669,0.209-7,0.366
						c-1.371,0.092-2.752,0.172-4.128,0.289c0.221,0.217,0.442,0.434,0.659,0.65c0.95-0.07,1.899-0.145,2.847-0.2
						c2.073-0.121,4.147-0.229,6.222-0.313c4.202-0.17,8.407-0.251,12.613-0.242c8.411,0.018,16.822,0.375,25.203,1.096
						c3.357,0.288,6.707,0.655,10.053,1.059v-0.832C121.676,243.531,114.617,242.924,107.543,242.589z"/>
					<path style="fill:#2B2B2B;" d="M42.509,214.271c0.048,0.139,0.098,0.277,0.156,0.419c1.458-0.464,2.888-1.024,4.346-1.49
						c1.793-0.573,3.609-1.08,5.441-1.513c3.651-0.862,7.366-1.426,11.104-1.734c0.793-0.065,1.587-0.1,2.38-0.138
						c-0.867-0.22-1.726-0.422-2.577-0.605c-1.615,0.145-3.226,0.326-4.829,0.566c-3.738,0.561-7.429,1.423-11.022,2.598
						C45.827,212.924,44.109,213.495,42.509,214.271z"/>
					<path style="fill:#2B2B2B;" d="M69.119,306.002c-2.288,0.319-4.585,0.578-6.886,0.781c-4.506,0.398-9.032,0.583-13.555,0.549
						c-1.285-0.009-2.569-0.029-3.854-0.059c-0.149-0.003-0.299-0.009-0.449-0.013c-0.024,0.167-0.032,0.329-0.044,0.493
						c0.01,0.001,0.021,0.001,0.031,0.002c1.129,0.068,2.26,0.108,3.391,0.138c2.312,0.06,4.628,0.036,6.939-0.033
						c4.572-0.137,9.138-0.515,13.673-1.11c0.326-0.043,0.65-0.096,0.975-0.141c0.771-0.32,1.556-0.655,2.345-0.996
						C70.83,305.748,69.975,305.883,69.119,306.002z"/>
					<path style="fill:#2B2B2B;" d="M56.049,299.341c-1.91-0.031-3.819-0.086-5.727-0.181c-0.535-0.027-1.071-0.063-1.608-0.101
						c-0.146,0.185-0.283,0.366-0.423,0.549c0.428,0.031,0.854,0.059,1.278,0.088c1.705,0.118,3.414,0.216,5.123,0.264
						c3.442,0.095,6.888,0.069,10.329-0.081c6.861-0.298,13.702-1.088,20.452-2.351c1.694-0.317,3.38-0.676,5.062-1.053
						c0.795-0.422,1.588-0.847,2.379-1.275c-5.426,1.333-10.929,2.357-16.473,3.045C69.681,299.084,62.86,299.452,56.049,299.341z"
						/>
					<path style="fill:#2B2B2B;" d="M75.246,234.169c-4.194,0.276-8.418,0.596-12.587,1.196c0.217,0.193,0.435,0.386,0.652,0.579
						c3.459-0.286,6.913-0.643,10.377-0.885c4.354-0.304,8.715-0.503,13.078-0.594c8.714-0.182,17.438,0.063,26.129,0.729
						c2.452,0.188,4.902,0.41,7.349,0.665c-0.494-0.314-1.003-0.636-1.532-0.968c-5.763-0.565-11.541-0.965-17.329-1.157
						C92.67,233.445,83.944,233.596,75.246,234.169z"/>
					<path style="fill:#2B2B2B;" d="M106.193,276.129c-8.791,1.977-17.707,3.418-26.676,4.284c-2.48,0.24-4.964,0.439-7.45,0.595
						c-1.243,0.078-2.487,0.146-3.732,0.203c-0.753,0.034-1.507,0.061-2.261,0.097c-0.205,0.201-0.413,0.401-0.619,0.602
						c1.953,0.028,3.923-0.114,5.865-0.22c2.238-0.122,4.475-0.278,6.708-0.474c4.448-0.389,8.884-0.917,13.299-1.577
						c8.918-1.333,17.751-3.249,26.428-5.702c3.684-1.042,7.329-2.215,10.951-3.452v-0.753
						C121.323,272.263,113.81,274.417,106.193,276.129z"/>
					<path style="fill:#2B2B2B;" d="M75.07,272.705c0.988-0.029,1.976-0.06,2.963-0.108c2-0.096,3.998-0.217,5.994-0.366
						c3.968-0.297,7.927-0.694,11.875-1.19c7.88-0.991,15.712-2.37,23.45-4.157c3.136-0.724,6.252-1.535,9.356-2.386v-0.82
						c-6.522,1.792-13.115,3.323-19.763,4.572c-7.791,1.463-15.656,2.539-23.553,3.227c-2.223,0.194-4.448,0.359-6.675,0.493
						c-1.114,0.067-2.228,0.133-3.342,0.192c-0.205,0.011-0.41,0.021-0.614,0.032c-0.146,0.171-0.293,0.343-0.442,0.515
						C74.568,272.707,74.817,272.712,75.07,272.705z"/>
					<path style="fill:#2B2B2B;" d="M89.638,260.539c3.392-0.114,6.785-0.227,10.177-0.34c6.811-0.228,13.622-0.475,20.432-0.719
						c2.82-0.101,5.64-0.192,8.46-0.299v-0.853c-5.792,0.186-11.584,0.433-17.375,0.647c-6.811,0.253-13.622,0.522-20.432,0.791
						c-3.142,0.124-6.292,0.229-9.431,0.446c-0.022,0.169-0.036,0.337-0.068,0.508C84.148,260.71,86.896,260.63,89.638,260.539z"/>
					<path style="fill:#2B2B2B;" d="M50.725,303.12c-1.456-0.06-2.911-0.135-4.365-0.223c-0.097-0.006-0.193-0.011-0.289-0.017
						c-0.108,0.187-0.223,0.376-0.322,0.56c0.048,0.004,0.096,0.01,0.145,0.014c1.298,0.106,2.597,0.197,3.897,0.272
						c2.599,0.15,5.201,0.24,7.804,0.275c5.154,0.069,10.308-0.072,15.45-0.427c1.296-0.09,2.59-0.198,3.884-0.314
						c0.679-0.315,1.361-0.635,2.046-0.961C69.591,303.247,60.147,303.508,50.725,303.12z"/>
					<path style="fill:#2B2B2B;" d="M119.452,276.157c-4.586,1.664-9.25,3.111-13.971,4.339c-4.722,1.227-9.5,2.234-14.315,3.017
						c-4.831,0.785-9.698,1.345-14.581,1.674c-4.874,0.328-9.744,0.366-14.626,0.324c-0.076-0.001-0.151,0-0.226-0.001
						c-0.195,0.187-0.389,0.374-0.583,0.561c4.554,0.295,9.16,0.177,13.709-0.072c4.903-0.268,9.793-0.768,14.649-1.496
						c4.848-0.727,9.662-1.682,14.422-2.859c4.782-1.183,9.508-2.591,14.158-4.22c2.454-0.86,4.884-1.786,7.292-2.767
						c0.677-0.549,1.305-1.078,1.871-1.581C124.677,274.171,122.08,275.204,119.452,276.157z"/>
					<path style="fill:#2B2B2B;" d="M108.29,285.944c-4.64,1.614-9.351,3.024-14.114,4.225c-4.787,1.207-9.627,2.204-14.501,2.986
						c-4.889,0.785-9.811,1.353-14.749,1.721c-4.337,0.323-8.672,0.42-13.015,0.457c-0.189,0.206-0.367,0.409-0.552,0.613
						c1.479,0.037,2.966,0.009,4.429-0.002c2.468-0.02,4.935-0.102,7.399-0.238c4.963-0.275,9.912-0.783,14.829-1.515
						c4.907-0.73,9.782-1.676,14.605-2.836c4.756-1.143,9.462-2.496,14.101-4.05c1.076-0.651,2.132-1.299,3.166-1.942
						C109.355,285.557,108.826,285.758,108.29,285.944z"/>
					<path style="fill:#2B2B2B;" d="M97.944,284.543c-9.555,2.382-19.263,4.136-29.044,5.279c-2.748,0.321-5.502,0.586-8.26,0.817
						c-1.5,0.125-3.004,0.217-4.507,0.324c-0.175,0.175-0.35,0.349-0.524,0.523c1.383-0.045,2.766-0.13,4.144-0.217
						c2.463-0.156,4.923-0.364,7.379-0.612c4.895-0.495,9.771-1.158,14.621-1.984c4.893-0.833,9.758-1.83,14.585-2.99
						c4.802-1.154,9.566-2.466,14.281-3.934c3.276-1.02,6.519-2.143,9.745-3.312c0.757-0.539,1.485-1.067,2.175-1.581
						C114.493,279.877,106.285,282.464,97.944,284.543z"/>
					<path style="fill:#2B2B2B;" d="M112.188,254.804c-7.251,0.559-14.495,1.205-21.731,1.945c-2.057,0.21-4.112,0.43-6.166,0.668
						c-0.948,0.11-1.896,0.221-2.843,0.335c0.021,0.121,0.048,0.243,0.063,0.363c0.008,0.064,0,0.131,0.007,0.195
						c0.743-0.07,1.485-0.147,2.227-0.219c1.821-0.177,3.643-0.354,5.464-0.534c3.618-0.357,7.238-0.687,10.858-1.009
						c7.243-0.643,14.493-1.203,21.749-1.678c2.296-0.15,4.594-0.273,6.892-0.406v-0.772
						C123.198,254.02,117.691,254.38,112.188,254.804z"/>
					<path style="fill:#2B2B2B;" d="M112.484,251.292c-7.37,0.373-14.733,0.888-22.081,1.569c-2.033,0.188-4.064,0.388-6.095,0.599
						c-1.426,0.148-2.863,0.285-4.288,0.479c0.118,0.218,0.233,0.434,0.339,0.648c1.109-0.102,2.218-0.22,3.325-0.327
						c1.849-0.18,3.697-0.365,5.547-0.535c3.648-0.333,7.299-0.634,10.953-0.9c7.334-0.533,14.678-0.92,22.027-1.158
						c2.165-0.07,4.332-0.093,6.498-0.137v-0.79C123.297,250.853,117.888,251.019,112.484,251.292z"/>
					<path style="fill:#2B2B2B;" d="M78.608,215.22c-2.775,0.079-5.547,0.235-8.314,0.468c-5.451,0.458-10.874,1.214-16.242,2.27
						c-1.532,0.301-3.058,0.628-4.579,0.982c-0.765,0.178-1.529,0.361-2.291,0.553c-0.365,0.092-0.736,0.182-1.102,0.287
						c0.113,0.132,0.228,0.264,0.345,0.397c0.198-0.042,0.397-0.084,0.595-0.125c0.671-0.14,1.34-0.293,2.011-0.435
						c1.359-0.287,2.72-0.56,4.084-0.821c2.68-0.514,5.373-0.955,8.074-1.339c5.424-0.77,10.89-1.239,16.366-1.413
						c1.561-0.049,3.122-0.075,4.683-0.076c0.425,0,0.851,0.01,1.277,0.017c-0.636-0.274-1.273-0.544-1.91-0.81
						C80.605,215.184,79.606,215.191,78.608,215.22z"/>
					<path style="fill:#2B2B2B;" d="M78.889,221.322c-6.008,0.457-11.992,1.228-17.921,2.298c-1.681,0.303-3.354,0.65-5.023,1.012
						c-0.85,0.184-1.698,0.376-2.544,0.576c-0.533,0.126-1.059,0.273-1.575,0.447c0.13,0.122,0.261,0.245,0.393,0.368
						c1.106-0.153,2.211-0.457,3.289-0.675c1.477-0.299,2.958-0.578,4.443-0.84c2.974-0.524,5.953-1.008,8.948-1.399
						c5.966-0.777,11.972-1.251,17.986-1.41c2.908-0.077,5.812-0.044,8.718-0.005c-0.577-0.295-1.158-0.588-1.741-0.88
						C88.868,220.734,83.854,220.944,78.889,221.322z"/>
					<path style="fill:#2B2B2B;" d="M90.527,224.409c-7.771,0.218-15.52,0.981-23.188,2.258c-3.926,0.654-7.884,1.396-11.732,2.449
						c0.173,0.155,0.344,0.309,0.518,0.465c3.326-0.656,6.639-1.37,9.983-1.939c3.849-0.655,7.719-1.18,11.603-1.571
						c7.674-0.773,15.391-1.042,23.101-0.79c0.575,0.019,1.148,0.065,1.722,0.09c-0.557-0.305-1.117-0.611-1.683-0.916
						C97.412,224.341,93.969,224.312,90.527,224.409z"/>
					<path style="fill:#2B2B2B;" d="M96.445,229.653c-8.325-0.019-16.644,0.353-24.935,1.11c-2.357,0.215-4.71,0.463-7.06,0.746
						c-1.785,0.215-3.588,0.403-5.367,0.697c0.17,0.15,0.341,0.301,0.512,0.452c1.388-0.145,2.775-0.313,4.161-0.46
						c2.098-0.223,4.199-0.426,6.3-0.614c4.159-0.372,8.325-0.644,12.496-0.84c8.262-0.388,16.54-0.394,24.804-0.04
						c1.656,0.071,3.311,0.175,4.965,0.275c-0.497-0.297-1.003-0.597-1.516-0.899c-0.587-0.032-1.174-0.077-1.761-0.105
						C104.848,229.77,100.647,229.662,96.445,229.653z"/>
					<path style="fill:#2B2B2B;" d="M58.051,220.771c-1.677,0.296-3.352,0.607-5.023,0.937c-1.439,0.285-2.88,0.574-4.306,0.925
						c0.145,0.148,0.29,0.295,0.438,0.444c2.643-0.405,5.271-0.949,7.905-1.403c2.92-0.504,5.846-0.971,8.78-1.382
						c5.815-0.816,11.66-1.42,17.525-1.734c1.802-0.096,3.604-0.162,5.408-0.205c-0.539-0.252-1.079-0.502-1.62-0.749
						c-3.87,0.134-7.737,0.374-11.593,0.745C69.697,218.915,63.857,219.747,58.051,220.771z"/>
					<path style="fill:#2B2B2B;" d="M65.125,212.088c-4.84,0.498-9.647,1.421-14.311,2.813c-2.266,0.676-4.518,1.435-6.688,2.379
						c0.098,0.141,0.198,0.283,0.302,0.426c1.904-0.643,3.803-1.301,5.732-1.868c2.335-0.687,4.699-1.283,7.084-1.771
						c4.726-0.968,9.538-1.499,14.362-1.583c1.035-0.018,2.07,0.004,3.104,0.027c-0.803-0.285-1.604-0.563-2.401-0.827
						C69.91,211.711,67.512,211.842,65.125,212.088z"/>
				</g>
			</g>
		</g>
		<g>
			<path style="fill:#AAC3BF;" d="M326.185,202.255c-4.364-12.281-41.384-52.278-46.304-49.301
				c-4.067,2.461-5.563,36.03-49.434,58.072l53.196-3.868L326.185,202.255z"/>
			<path style="fill:#25373F;" d="M279.881,152.955c-0.233,0.141-0.458,0.397-0.684,0.735c0.232,0.172,0.462,0.347,0.692,0.521
				c0.053,0.041,0.107,0.083,0.159,0.124c0.23,0.181,0.461,0.361,0.696,0.536c0.14,0.105,0.28,0.211,0.419,0.317
				c0.06,0.046,0.119,0.092,0.179,0.137c0.178,0.136-0.094-0.074-0.105-0.081c0.292,0.173,0.558,0.438,0.824,0.65
				c1.055,0.845,2.086,1.72,3.1,2.613c4.009,3.531,7.849,7.284,11.535,11.149c3.7,3.88,7.228,7.924,10.571,12.115
				c0.416,0.522,0.829,1.046,1.24,1.572c0.091,0.117,0.182,0.234,0.273,0.351c0.013,0.016,0.016,0.02,0.025,0.031
				c0.01,0.013,0.013,0.017,0.025,0.033c0.211,0.274,0.421,0.548,0.63,0.823c0.807,1.061,1.603,2.131,2.386,3.209
				c1.568,2.157,3.088,4.349,4.559,6.573c1.818,2.749,3.541,5.563,5.193,8.418l4.588-0.529
				C321.821,189.974,284.801,149.977,279.881,152.955z"/>
			<g>
				<g>
					<path style="fill:#2B2B2B;" d="M273.546,164.605c2.89,2.39,5.851,4.688,8.667,7.167c2.649,2.332,5.212,4.763,7.652,7.313
						c2.397,2.506,4.671,5.127,6.819,7.85c2.166,2.746,4.19,5.603,6.087,8.54c2.017,3.125,3.889,6.342,5.642,9.622
						c0.23,0.43,0.459,0.851,0.724,1.261c0.272,0.421,1.073,0.155,0.86-0.362c-0.372-0.9-0.854-1.746-1.321-2.601
						c-0.462-0.845-0.932-1.686-1.411-2.521c-0.916-1.598-1.864-3.179-2.846-4.737c-1.898-3.01-3.927-5.938-6.098-8.758
						c-2.141-2.782-4.418-5.458-6.822-8.016c-2.427-2.583-4.978-5.05-7.637-7.393c-2.805-2.471-5.702-4.857-8.735-7.043
						c-0.392-0.283-0.791-0.554-1.192-0.825C273.636,163.9,273.264,164.372,273.546,164.605L273.546,164.605z"/>
				</g>
			</g>
			<g>
				<g>
					<path style="fill:#2B2B2B;" d="M271.285,169.828c0.623,0.554,1.344,0.97,2.036,1.432c0.672,0.448,1.342,0.901,2.005,1.362
						c1.318,0.917,2.619,1.856,3.878,2.853c2.439,1.931,4.753,4.026,6.912,6.267c2.135,2.216,4.12,4.577,5.938,7.06
						c1.844,2.517,3.526,5.153,5.058,7.871c1.596,2.833,3.029,5.757,4.327,8.739c0.164,0.377,0.326,0.755,0.486,1.134
						c0.108,0.257,0.487,0.313,0.706,0.185c0.266-0.155,0.294-0.448,0.185-0.706c-1.278-3.027-2.688-5.999-4.264-8.883
						c-1.516-2.775-3.183-5.467-5.02-8.041c-1.812-2.54-3.782-4.968-5.911-7.249c-2.14-2.292-4.438-4.433-6.879-6.402
						c-2.54-2.05-5.21-3.929-8.034-5.567c-0.372-0.216-0.74-0.389-1.145-0.533C271.295,169.255,271.076,169.643,271.285,169.828
						L271.285,169.828z"/>
				</g>
			</g>
			<g>
				<g>
					<path style="fill:#2B2B2B;" d="M268.731,174.251c0.474,0.513,1.047,0.904,1.598,1.33c0.517,0.401,1.031,0.805,1.54,1.217
						c1.023,0.829,2.037,1.669,3.017,2.548c1.916,1.72,3.728,3.56,5.41,5.509c3.328,3.855,6.133,8.135,8.528,12.622
						c1.426,2.671,2.709,5.415,3.896,8.2c0.113,0.264,0.502,0.323,0.727,0.191c0.273-0.16,0.304-0.462,0.191-0.727
						c-2.095-4.906-4.496-9.694-7.427-14.157c-2.83-4.31-6.159-8.309-9.988-11.768c-1.098-0.991-2.227-1.957-3.408-2.849
						c-0.599-0.453-1.205-0.896-1.825-1.321c-0.651-0.446-1.289-0.908-2.028-1.195C268.727,173.762,268.583,174.091,268.731,174.251
						L268.731,174.251z"/>
				</g>
			</g>
			<g>
				<g>
					<path style="fill:#2B2B2B;" d="M266.496,178.414c0.749,0.891,1.618,1.677,2.449,2.491c0.803,0.786,1.591,1.588,2.362,2.405
						c1.522,1.612,2.989,3.279,4.385,5.001c2.762,3.406,5.234,7.041,7.45,10.823c1.297,2.214,2.504,4.48,3.641,6.781
						c0.286,0.579,1.156,0.071,0.867-0.507c-2.031-4.067-4.282-8.027-6.835-11.79c-2.495-3.678-5.269-7.175-8.326-10.402
						c-0.865-0.914-1.751-1.808-2.656-2.682c-0.943-0.911-1.895-1.842-2.985-2.577C266.558,177.76,266.296,178.176,266.496,178.414
						L266.496,178.414z"/>
				</g>
			</g>
			<g>
				<g>
					<path style="fill:#2B2B2B;" d="M263.685,182.609c0.24,0.422,0.568,0.735,0.897,1.086c0.331,0.352,0.682,0.686,1.028,1.023
						c0.679,0.663,1.345,1.339,2.006,2.019c1.287,1.322,2.521,2.695,3.692,4.12c2.313,2.816,4.363,5.845,6.154,9.018
						c0.513,0.91,1.006,1.832,1.479,2.764c0.503,0.991,0.954,2.006,1.456,2.997c0.247,0.488,1.114,0.14,0.898-0.379
						c-0.751-1.807-1.694-3.556-2.645-5.265c-0.904-1.625-1.874-3.213-2.914-4.755c-2.073-3.075-4.429-5.956-7.006-8.622
						c-0.751-0.777-1.526-1.529-2.321-2.261c-0.394-0.363-0.792-0.72-1.206-1.06c-0.427-0.35-0.839-0.69-1.352-0.903
						C263.726,182.341,263.627,182.508,263.685,182.609L263.685,182.609z"/>
				</g>
			</g>
			<g>
				<g>
					<path style="fill:#2B2B2B;" d="M260.223,187.159c0.523,0.664,1.234,1.182,1.867,1.736c0.635,0.556,1.262,1.121,1.879,1.697
						c1.171,1.093,2.303,2.233,3.38,3.419c2.137,2.355,4.032,4.917,5.694,7.627c1.002,1.634,1.86,3.333,2.768,5.018
						c0.308,0.572,1.121,0.07,0.858-0.502c-0.713-1.552-1.588-3.052-2.473-4.512c-0.847-1.398-1.754-2.76-2.729-4.071
						c-1.926-2.59-4.089-5-6.479-7.169c-0.697-0.633-1.409-1.247-2.141-1.838c-0.748-0.604-1.514-1.304-2.4-1.695
						C260.251,186.783,260.091,186.991,260.223,187.159L260.223,187.159z"/>
				</g>
			</g>
			<g>
				<g>
					<path style="fill:#2B2B2B;" d="M257.305,190.079c0.132,0.169,0.231,0.339,0.383,0.49c0.121,0.12,0.248,0.235,0.374,0.35
						c0.275,0.251,0.55,0.503,0.828,0.752c0.547,0.491,1.085,0.992,1.614,1.501c1.012,0.973,1.995,1.977,2.924,3.029
						c1.863,2.11,3.508,4.406,4.958,6.816c0.413,0.687,0.811,1.383,1.194,2.087c0.409,0.751,0.768,1.532,1.192,2.273
						c0.129,0.226,0.438,0.305,0.662,0.174c0.249-0.147,0.276-0.419,0.173-0.662c-0.575-1.363-1.362-2.673-2.113-3.944
						c-0.732-1.239-1.513-2.452-2.354-3.62c-1.667-2.315-3.54-4.516-5.647-6.443c-0.616-0.563-1.25-1.107-1.902-1.628
						c-0.316-0.252-0.636-0.499-0.966-0.734c-0.167-0.118-0.333-0.236-0.504-0.347c-0.214-0.139-0.423-0.206-0.655-0.305
						C257.326,189.809,257.21,189.956,257.305,190.079L257.305,190.079z"/>
				</g>
			</g>
			<g>
				<g>
					<path style="fill:#2B2B2B;" d="M253.888,193.772c0.36,0.476,0.861,0.838,1.308,1.228c0.447,0.39,0.888,0.789,1.327,1.188
						c0.856,0.776,1.68,1.588,2.466,2.434c1.544,1.661,2.937,3.454,4.206,5.333c0.759,1.125,1.474,2.28,2.158,3.452
						c0.328,0.561,1.203,0.052,0.872-0.51c-2.402-4.084-5.232-7.898-8.744-11.1c-0.502-0.457-1.017-0.895-1.55-1.315
						c-0.53-0.418-1.07-0.902-1.7-1.158C253.995,193.229,253.732,193.566,253.888,193.772L253.888,193.772z"/>
				</g>
			</g>
			<g>
				<g>
					<path style="fill:#2B2B2B;" d="M250.612,197.081c0.109,0.235,0.322,0.389,0.509,0.561c0.201,0.184,0.402,0.363,0.615,0.533
						c0.398,0.318,0.794,0.64,1.184,0.969c0.754,0.636,1.504,1.273,2.216,1.956c1.392,1.336,2.667,2.792,3.842,4.321
						c0.739,0.962,1.444,1.949,2.133,2.947c0.34,0.493,1.152,0.023,0.807-0.472c-2.351-3.37-4.929-6.62-8.19-9.16
						c-0.466-0.363-0.946-0.706-1.435-1.037c-0.255-0.173-0.513-0.335-0.786-0.476c-0.254-0.131-0.504-0.299-0.796-0.316
						C250.616,196.903,250.578,197.008,250.612,197.081L250.612,197.081z"/>
				</g>
			</g>
			<g>
				<g>
					<path style="fill:#2B2B2B;" d="M246.821,200.018c1.309,1.066,2.7,2.023,3.979,3.128c1.178,1.018,2.284,2.114,3.318,3.278
						c0.666,0.75,1.305,1.523,1.929,2.307c0.165,0.207,0.52,0.172,0.691,0c0.203-0.202,0.167-0.486,0-0.691
						c-2.088-2.561-4.364-4.909-7.049-6.848c-0.811-0.586-1.637-1.151-2.518-1.627C246.897,199.417,246.557,199.803,246.821,200.018
						L246.821,200.018z"/>
				</g>
			</g>
			<g>
				<g>
					<path style="fill:#2B2B2B;" d="M243.954,201.975c-0.001,0.004-0.003,0.009-0.004,0.013c-0.02,0.068-0.002,0.164,0.056,0.211
						c0.386,0.316,0.876,0.52,1.312,0.761c0.407,0.225,0.816,0.447,1.213,0.689c0.68,0.415,1.34,0.872,1.954,1.379
						c1.398,1.154,2.598,2.534,3.809,3.877c0.415,0.46,1.096-0.222,0.68-0.68c-1.897-2.09-3.831-4.141-6.372-5.448
						c-0.372-0.191-0.749-0.366-1.135-0.526c-0.416-0.172-0.858-0.369-1.308-0.421c-0.072-0.008-0.153,0.047-0.187,0.107
						C243.965,201.949,243.959,201.962,243.954,201.975L243.954,201.975z"/>
				</g>
			</g>
			<g>
				<g>
					<path style="fill:#2B2B2B;" d="M240.55,204.305c1.121,0.823,2.257,1.596,3.312,2.506c1.057,0.911,2.003,1.929,2.997,2.906
						c0.423,0.416,1.058-0.222,0.65-0.65c-1.951-2.046-4.12-3.995-6.729-5.155C240.511,203.794,240.312,204.131,240.55,204.305
						L240.55,204.305z"/>
				</g>
			</g>
			<g>
				<g>
					<path style="fill:#2B2B2B;" d="M236.367,207.102c1.49,1.323,3.089,2.526,4.681,3.726c0.215,0.162,0.556,0.034,0.68-0.178
						c0.146-0.251,0.04-0.523-0.178-0.68c-1.586-1.142-3.177-2.288-4.849-3.3C236.438,206.511,236.129,206.891,236.367,207.102
						L236.367,207.102z"/>
				</g>
			</g>
			<g>
				<g>
					<path style="fill:#2B2B2B;" d="M277.432,156.132c0.83,0.657,1.724,1.235,2.603,1.827c0.882,0.594,1.755,1.202,2.622,1.817
						c1.709,1.212,3.388,2.469,5.02,3.782c3.218,2.587,6.273,5.38,9.133,8.359c2.836,2.954,5.484,6.09,7.925,9.378
						c2.468,3.324,4.731,6.799,6.796,10.388c2.111,3.669,4.02,7.456,5.729,11.328c0.214,0.485,0.425,0.971,0.633,1.458
						c0.097,0.226,0.425,0.272,0.618,0.162c0.233-0.133,0.258-0.395,0.162-0.618c-1.694-3.931-3.568-7.784-5.656-11.521
						c-2.024-3.621-4.246-7.132-6.673-10.497c-2.423-3.358-5.046-6.572-7.868-9.603c-2.809-3.018-5.812-5.856-8.993-8.478
						c-3.273-2.698-6.717-5.246-10.395-7.368c-0.464-0.268-0.92-0.518-1.408-0.736C277.488,155.722,277.232,155.974,277.432,156.132
						L277.432,156.132z"/>
				</g>
			</g>
			<g>
				<g>
					<path style="fill:#2B2B2B;" d="M275.529,160.366c1.468,1.285,3.074,2.418,4.617,3.612c1.462,1.131,2.916,2.273,4.348,3.442
						c2.838,2.319,5.578,4.755,8.203,7.312c2.865,2.791,5.613,5.711,8.254,8.715c2.693,3.064,5.233,6.283,7.303,9.806
						c1.982,3.373,3.53,7.023,4.288,10.873c0.095,0.484,0.177,0.971,0.248,1.46c0.035,0.243,0.341,0.372,0.555,0.315
						c0.26-0.068,0.35-0.315,0.315-0.555c-0.567-3.921-1.972-7.678-3.849-11.154c-1.946-3.605-4.413-6.902-7.062-10.017
						c-2.656-3.122-5.468-6.13-8.376-9.018c-2.628-2.61-5.37-5.101-8.219-7.468c-2.911-2.418-5.909-4.771-9.049-6.886
						c-0.422-0.285-0.844-0.561-1.282-0.819C275.591,159.847,275.316,160.18,275.529,160.366L275.529,160.366z"/>
				</g>
			</g>
		</g>
		<path style="fill:#DFEDEA;" d="M276.861,203.427c145.293-11.02,181.582,42.93,180.471,44.71s-24.918,4.093-36.277,10.39
			c0,0,21.851-1.265,22.353,0s-38.751,33.454-143.736,33.454c-104.985,0-203.648-24.323-206.122-32.116
			C91.077,252.073,172.61,216.651,276.861,203.427z"/>
		<g>
			<defs>
				<path id="SVGID_1_" d="M276.861,203.427c145.293-11.02,181.582,42.93,180.471,44.71s-24.918,4.093-36.277,10.39
					c0,0,21.851-1.265,22.353,0s-38.751,33.454-143.736,33.454c-104.985,0-203.648-24.323-206.122-32.116
					C91.077,252.073,172.61,216.651,276.861,203.427z"/>
			</defs>
			<clipPath id="SVGID_00000110454766888635111350000014192388702263695542_">
				<use xlink:href="#SVGID_1_"  style="overflow:visible;"/>
			</clipPath>
			<g style="clip-path:url(#SVGID_00000110454766888635111350000014192388702263695542_);">
				<g>
					<path style="fill:#AAC3BF;" d="M469.632,253.773c-26.351-9.892-55.61-1.589-83.756-1.591
						c-13.646-0.001-27.206-1.991-40.817-2.972c-21.314-1.536-42.805-0.588-63.901,2.82c-7.021,1.134-14.023,2.542-21.126,2.901
						c-20.844,1.054-41.14-6.935-61.99-7.831c-21.268-0.913-42.085,5.559-63.208,8.201c-9.685,1.212-19.468,1.619-29.106,3.158
						c-12.531,2-24.754,5.918-36.113,11.574v-83.982h400.018V253.773z"/>
				</g>
				<g>
					<path style="fill:#3A5065;" d="M477.371,246.962c-96.558-27.567-96.329-11.71-144.902-12.132
						c-16.123-0.14-32.312-1.947-48.323-0.047c-12.781,1.517-25.285,5.382-38.152,5.705c-15.038,0.377-25.608,0.027-40.52-1.956
						c-49.823-6.624-103.472,26.975-153.731,26.518v-83.102h425.628V246.962z"/>
				</g>
				<g>
					<path style="fill:#25373F;" d="M463.875,233.539c-18.558,4.888-36.54-8.069-54.955-13.471
						c-8.495-2.492-17.364-3.376-26.173-4.249c-13.103-1.299-26.302-2.598-39.413-1.387c-10.653,0.984-21.118,3.617-31.794,4.315
						c-20.563,1.345-41.493-5.595-61.642-1.275c-7.524,1.613-14.699,4.06-22.23,5.643c-16.457,3.458-33.71,1.656-50.276,4.551
						c-12.722,2.224-24.467,8.08-36.613,12.471c-12.146,4.391-33.606,12.042-45.95,8.242v-68.995h374.803L463.875,233.539z"/>
				</g>
			</g>
		</g>
		<g>
			<circle style="fill:#FFFFFF;" cx="397.471" cy="232.842" r="17.035"/>
			<path style="fill:#2B2B2B;" d="M397.471,220.097c-6.128,0-11.242,4.327-12.464,10.091c0,0,8.278,1.369,8.278,2.654
				c0,1.285-8.278,2.654-8.278,2.654c1.222,5.764,6.336,10.091,12.464,10.091c7.039,0,12.745-5.706,12.745-12.745
				C410.217,225.803,404.51,220.097,397.471,220.097z"/>
		</g>
		<g>
			<path style="fill:#3A5065;" d="M228.331,284.159c0,0-4.36,21.288-24.623,26.162c-3.206,0.641,6.027-5.386,6.925-15.133
				c-0.128-5.899,4.36-5.514,8.336-8.208c3.976-2.693,3.986-3.38,3.986-3.38C224.084,284.53,226.371,284.016,228.331,284.159z"/>
			<g>
				<g>
					<path style="fill:#2B2B2B;" d="M210.634,295.188c-0.004,0.047-0.015,0.09-0.02,0.136c1.042-0.673,2.05-1.399,3.009-2.185
						c2.117-1.736,4.076-3.755,5.636-6.011c0.148-0.215,0.3-0.437,0.451-0.659c-0.231,0.162-0.476,0.331-0.741,0.511
						c-0.227,0.154-0.457,0.296-0.687,0.431c-0.566,0.713-1.148,1.414-1.77,2.079c-1.752,1.874-3.715,3.535-5.858,4.944
						C210.642,294.678,210.628,294.919,210.634,295.188z"/>
					<path style="fill:#2B2B2B;" d="M226.743,286.835c0.311-0.868,0.622-1.781,0.834-2.703c-0.148-0.001-0.297,0.003-0.446,0.006
						c-0.231,0.701-0.454,1.406-0.715,2.094c-0.452,1.196-0.967,2.363-1.532,3.51c-1.12,2.275-2.481,4.429-4.04,6.429
						c-3.098,3.975-6.991,7.33-11.404,9.767c-1.618,0.894-3.308,1.643-5.043,2.269c-0.314,0.387-0.581,0.721-0.8,1.007
						c4.27-1.4,8.25-3.625,11.734-6.467c4.012-3.273,7.355-7.369,9.715-11.98C225.697,289.495,226.26,288.18,226.743,286.835z"/>
					<path style="fill:#2B2B2B;" d="M221.698,287.928c0.731-1.28,1.346-2.623,1.815-4.017c-0.1-0.039-0.188-0.092-0.278-0.143
						c-1.253,2.768-2.76,5.409-4.725,7.745c-2.265,2.693-4.961,4.995-8.01,6.759c-0.169,0.098-0.351,0.172-0.522,0.266
						c-0.095,0.32-0.207,0.626-0.316,0.936C214.66,296.868,218.894,292.84,221.698,287.928z"/>
					<path style="fill:#2B2B2B;" d="M209.92,301.859c-0.581,0.346-1.175,0.67-1.775,0.981c-0.196,0.353-0.395,0.691-0.598,1.021
						c0.672-0.324,1.348-0.64,1.998-1.007c1.834-1.035,3.572-2.237,5.197-3.575c3.268-2.692,6.091-5.984,8.202-9.658
						c1-1.742,1.83-3.547,2.437-5.448c-0.135,0-0.264-0.008-0.395-0.013c-1.504,3.45-3.327,6.747-5.733,9.661
						C216.628,297.003,213.465,299.747,209.92,301.859z"/>
				</g>
			</g>
		</g>
		<g>
			<path style="fill:#3A5065;" d="M344.252,273.809c0,0-8.358,36.926-35.711,48.475c-3.039,0.76,5.319-7.446,5.319-16.564
				c0-9.118,10.064-4.378,24.804-30.667C338.664,275.053,341.744,274.492,344.252,273.809z"/>
			<g>
				<path style="fill:#2B2B2B;" d="M313.961,304.289c3.921-2.548,7.589-5.506,10.878-8.822c3.957-3.991,7.427-8.499,10.251-13.359
					c1.253-2.157,2.405-4.397,3.373-6.705c-1.026,1.816-2.028,3.474-3.007,5.005c-1.427,2.599-2.997,5.116-4.784,7.516
					c-3.333,4.476-7.271,8.518-11.627,12.004c-1.575,1.26-3.222,2.427-4.914,3.524C314.059,303.715,314.005,303.996,313.961,304.289
					z"/>
				<path style="fill:#2B2B2B;" d="M324.441,300.108c4.406-4.88,8.037-10.403,11.222-16.14c0.916-1.651,1.794-3.321,2.639-5.009
					c0.694-1.387,1.374-2.79,1.974-4.223c-0.134,0.028-0.268,0.055-0.389,0.079c-0.597,1.1-1.162,2.217-1.733,3.329
					c-0.766,1.492-1.548,2.976-2.349,4.449c-1.602,2.942-3.308,5.829-5.172,8.614c-3.477,5.193-7.528,10.033-12.316,14.07
					c-1.516,1.278-3.111,2.445-4.767,3.522c-0.052,0.279-0.114,0.552-0.178,0.827C317.474,306.986,321.18,303.72,324.441,300.108z"
					/>
				<path style="fill:#2B2B2B;" d="M324.117,308.618c5.841-6.5,10.212-14.158,13.934-22.024c1.956-4.134,3.765-8.352,5.476-12.597
					c-0.192,0.049-0.382,0.096-0.575,0.143c-1.544,3.538-3.046,7.092-4.672,10.595c-1.903,4.099-3.953,8.137-6.286,12.009
					c-4.174,6.928-9.336,13.376-15.77,18.336c-2.267,1.747-4.703,3.271-7.257,4.563c-0.219,0.385-0.413,0.736-0.575,1.046
					C314.391,317.812,319.672,313.565,324.117,308.618z"/>
				<path style="fill:#2B2B2B;" d="M324.208,304.553c2.368-3.083,4.56-6.31,6.759-9.515c2.189-3.19,4.316-6.427,6.226-9.793
					c1.963-3.46,3.704-7.081,4.861-10.894c-0.118,0.027-0.233,0.053-0.349,0.079c-1.251,3.195-2.675,6.318-4.322,9.33
					c-1.819,3.326-3.866,6.522-5.99,9.66c-2.134,3.152-4.298,6.293-6.552,9.361c-2.236,3.042-4.662,5.989-7.575,8.412
					c-1.743,1.45-3.67,2.695-5.733,3.625c-0.125,0.269-0.25,0.53-0.377,0.788C316.459,313.407,320.735,309.074,324.208,304.553z"/>
			</g>
		</g>
		<g>
			<g style="opacity:0.3;">
				<path style="fill:#FFFFFF;" d="M392.09,258.363c-0.857-0.059-1.713-0.147-2.567-0.151c-0.427-0.002-0.858,0.017-1.284,0.031
					c-0.542,0.018-2.803,0.444-1.285,0.088c-0.817,0.191-1.736,0.188-2.572,0.275c-1.367,0.141-2.725,0.329-4.084,0.533
					c-1.733,0.26-3.469,0.505-5.205,0.745c-1.501,0.208,1.334-0.172-0.158,0.021c-0.43,0.056-0.86,0.113-1.29,0.168
					c-1.004,0.129-2.008,0.256-3.013,0.375c-0.832,0.099-1.659,0.21-2.491,0.318c1.753-0.228,0.244-0.032-0.093,0.012
					c-0.862,0.113-1.724,0.223-2.586,0.33c-1.725,0.214-3.451,0.418-5.178,0.61c-3.599,0.401-7.203,0.756-10.811,1.067
					c-14.323,1.234-28.686,1.441-43.055,1.483c-28.806,0.084-57.602-1.928-86.269-4.616c-8.027-0.753-16.048-1.537-24.078-2.252
					c-4.036-0.359-8.187-1.058-12.237-0.889c-4.569,0.191-9.144,0.224-13.677,0.904c0.632-0.085,1.264-0.17,1.896-0.255
					c-1.382,0.034-3.071,0.162-4.355,0.562c-1.459,0.455-2.882,1.467-3.9,2.631c-1.459,1.668-1.892,3.947-0.765,5.931
					c0.454,0.799,1.162,1.757,1.778,2.373c1.272,1.272,3.025,1.875,4.718,2.351c1.798,0.506,3.583,1.098,5.403,1.528
					c1.753,0.414,3.505,0.841,5.262,1.238c2.514,0.567,5,0.985,7.571,1.244c7.43,0.749,14.861,1.531,22.309,2.081
					c14.809,1.094,29.641,2.066,44.484,2.558c14.878,0.493,29.772,0.632,44.654,0.237c7.426-0.197,14.844-0.509,22.248-1.113
					c7.4-0.604,14.786-1.388,22.163-2.222c15.081-1.705,30.323-3.756,44.946-7.91c0.207-0.059,0.428-0.101,0.631-0.171
					c-0.03,0.01,1.74-0.926,1.027-0.443c-0.456,0.309,0.052-0.027,0.186-0.081c0.204-0.082,0.409-0.159,0.613-0.24
					c1.11-0.442,2.125-0.999,3.174-1.566c1.559-0.842,2.472-3.014,1.92-4.719C395.523,259.589,394.003,258.496,392.09,258.363
					L392.09,258.363z"/>
			</g>
			<g style="opacity:0.6;">
				<path style="fill:#FFFFFF;" d="M386.315,268.988c-7.211,0.026-14.406,0.445-21.61,0.753c-7.067,0.302-14.131,0.624-21.202,0.844
					c-14.294,0.444-28.579,0.872-42.88,0.982c-14.155,0.109-28.312-0.031-42.462-0.42c-14.298-0.393-28.578-1.225-42.856-2.053
					c-7.929-0.46-15.852-1.015-23.772-1.609c-4.031-0.303-8.06-0.626-12.088-0.969c-2.014-0.172-4.027-0.349-6.04-0.532
					c-2.009-0.182-4.02-0.166-6.037-0.232c-1.588-0.052-2.007,2.552-0.383,2.829c1.705,0.291,3.408,0.686,5.126,0.881
					c1.866,0.212,3.739,0.381,5.608,0.566c3.596,0.354,7.193,0.695,10.791,1.018c7.195,0.646,14.399,1.202,21.606,1.699
					c14.266,0.983,28.552,1.554,42.847,1.894c28.605,0.679,57.19,0.584,85.778-0.705c7.94-0.358,15.876-0.937,23.801-1.531
					c7.984-0.598,15.982-1.281,23.892-2.532C386.942,269.79,386.809,268.986,386.315,268.988L386.315,268.988z"/>
			</g>
		</g>
		<g>
			<g style="opacity:0.5;">
				<path style="fill:#25373F;" d="M375.437,210.928c-0.548,0.98-1.07,1.943-1.51,2.978c-0.439,1.035-0.862,2.081-1.229,3.143
					c-0.731,2.12-1.352,4.273-1.859,6.457c-1.008,4.337-1.616,8.773-1.829,13.22c-0.428,8.924,0.775,17.961,3.538,26.458
					c1.54,4.736,3.533,9.462,6.148,13.711c0.532,0.865,1.856,0.095,1.363-0.797c-2.12-3.839-4.023-7.736-5.48-11.879
					c-1.456-4.142-2.537-8.413-3.23-12.748c-1.379-8.618-1.211-17.531,0.525-26.085c0.492-2.423,1.107-4.826,1.829-7.19
					c0.354-1.159,0.719-2.316,1.111-3.463c0.407-1.188,0.776-2.384,1.172-3.574C376.094,210.835,375.602,210.633,375.437,210.928
					L375.437,210.928z"/>
			</g>
			<g style="opacity:0.5;">
				<path style="fill:#25373F;" d="M342.787,218.22c-2.162-0.773-3.82-2.799-4.146-5.074c-0.35-2.445,0.906-4.622,2.56-6.308
					c0.26-0.265-0.067-0.637-0.379-0.491c-1.596,0.748-2.618,2.32-3.091,4.001c-0.045-0.006-0.083-0.031-0.133-0.015
					c-2.713,0.827-5.145,2.844-6.307,5.452c-1.124,2.521-0.943,5.475,0.627,7.777c0.559,0.82,1.277,1.495,2.104,2.006
					c-2.863,1.15-5.156,3.564-6.234,6.463c-1.285,3.457-0.471,7.31,1.782,10.172c0.86,1.092,1.929,1.989,3.126,2.674
					c-2.161,0.696-3.923,2.467-4.722,4.617c-1.053,2.832-0.033,5.976,2.084,8.029c1.106,1.072,2.495,1.841,3.994,2.199
					c-0.419,0.858-0.728,1.768-0.877,2.708c-0.47,2.983,0.543,5.977,2.641,8.139c1.161,1.197,2.618,2.088,4.219,2.554
					c0.813,0.237,1.16-1.03,0.349-1.266c-2.435-0.71-4.471-2.591-5.429-4.936c-0.999-2.444-0.67-5.195,0.711-7.424
					c0.782-1.262,1.876-2.291,3.188-2.986c0.492-0.261,0.39-1.081-0.158-1.206c-2.234-0.506-3.51-2.637-3.837-4.781
					c-0.408-2.676,0.847-5.206,2.444-7.272c1.035-1.338,2.237-2.54,3.433-3.732c0.28-0.279,0.249-0.836-0.132-1.023
					c-2.602-1.282-4.191-3.978-4.549-6.807c-0.397-3.133,0.8-6.227,2.763-8.639c1.168-1.435,2.575-2.656,4.119-3.671
					C343.412,219.068,343.306,218.405,342.787,218.22z M334.869,254.131c0.574,0.826,1.326,1.497,2.201,1.954
					c-0.957,0.701-1.775,1.584-2.422,2.582c-2.42-0.487-4.602-2.213-5.495-4.54c-0.934-2.433-0.233-5.08,1.667-6.841
					c0.957-0.888,2.179-1.442,3.48-1.532c-0.098,0.228-0.203,0.451-0.288,0.687C333.111,248.941,333.327,251.914,334.869,254.131z
					 M336.093,235.881c0.751,1.343,1.832,2.49,3.134,3.308c-1.642,1.651-3.251,3.397-4.374,5.433
					c-0.032-0.018-0.058-0.04-0.095-0.053c-3.046-1.063-5.374-3.779-6.155-6.886c-0.792-3.152,0.258-6.457,2.497-8.769
					c1.199-1.238,2.696-2.133,4.356-2.588c-0.006,0.015-0.013,0.029-0.019,0.044C334.278,229.464,334.471,232.983,336.093,235.881z
					 M335.921,225.249c-0.058-0.051-0.105-0.113-0.186-0.138c-2.232-0.708-3.673-2.859-4.018-5.107
					c-0.381-2.482,0.771-4.896,2.535-6.592c0.97-0.932,2.084-1.65,3.291-2.226c-0.019,0.112-0.045,0.225-0.059,0.337
					c-0.269,2.149,0.495,4.298,1.939,5.893c0.557,0.616,1.216,1.115,1.935,1.514C339.08,220.575,337.133,222.713,335.921,225.249z"
					/>
				<path style="fill:#25373F;" d="M304.663,214.267c-2.081,0.873-3.746,2.686-4.468,4.762c-2.796,0.026-5.397,1.674-7.029,3.877
					c-0.611,0.825-1.054,1.745-1.346,2.71c-0.048-0.023-0.079-0.063-0.141-0.068c-3.383-0.244-6.574,1.98-8.168,4.863
					c-1.73,3.129-1.386,6.919,0.395,9.949c0.821,1.396,1.938,2.603,3.246,3.555c-2.845,1.127-5.118,3.499-6.205,6.366
					c-1.263,3.331-0.576,7.125,1.555,9.945c1.212,1.603,2.794,2.84,4.667,3.579c0.177,0.07,0.326,0.046,0.441-0.029
					c-0.125,2.813,0.97,5.624,3.042,7.553c1.05,0.978,2.336,1.684,3.732,2.012c0.063,0.586,0.179,1.165,0.396,1.715
					c0.506,1.282,1.392,2.298,2.52,3.077c1.264,0.873,2.739,1.4,4.178,1.907c0.739,0.26,1.057-0.914,0.323-1.172
					c-2.19-0.771-4.676-1.675-5.751-3.913c-0.263-0.546-0.413-1.117-0.482-1.695c0.04-0.053,0.074-0.112,0.095-0.185
					c0.049-0.17-0.009-0.379-0.128-0.529c0.002-1.628,0.622-3.273,1.519-4.605c0.826-1.227,1.892-2.274,3.006-3.237
					c0.337-0.292,0.163-0.921-0.267-1.012c-3.088-0.656-5.119-3.515-5.746-6.468c-0.701-3.302,0.282-6.826,2.622-9.26
					c1.219-1.268,2.733-2.22,4.411-2.748c0.597-0.188,0.546-0.956,0-1.163c-2.758-1.045-4.839-3.589-5.322-6.496
					c-0.523-3.146,0.873-6.258,3.346-8.193c1.449-1.134,3.142-1.915,4.79-2.708c0.502-0.241,0.295-0.927-0.142-1.087
					c-2.007-0.733-3.065-3.049-2.848-5.087c0.258-2.424,2.112-4.251,4.057-5.51C305.305,214.748,305.086,214.09,304.663,214.267z
					 M283.539,236.046c-0.417-3.085,0.927-6.18,3.427-8.029c1.361-1.007,2.968-1.584,4.662-1.636
					c-0.328,1.534-0.291,3.149,0.13,4.678c0.379,1.378,1.077,2.646,2.007,3.727c-2.218,2.114-4.019,4.708-4.95,7.642
					c-0.112,0.352-0.207,0.708-0.29,1.067C285.891,241.893,283.954,239.12,283.539,236.046z M281.661,255.77
					c-0.698-3.065,0.345-6.265,2.501-8.512c1.141-1.19,2.559-2.068,4.135-2.544c-0.318,2.287-0.059,4.644,0.84,6.79
					c0.585,1.398,1.444,2.663,2.537,3.709c-2.093,2.047-3.588,4.725-3.98,7.639c-0.058-0.062-0.129-0.115-0.221-0.151
					C284.539,261.546,282.356,258.819,281.661,255.77z M294.837,261.808c0.938,1.211,2.18,2.178,3.607,2.722
					c-1.848,1.731-3.479,3.828-3.962,6.354c-0.08,0.418-0.121,0.846-0.14,1.275c-2.176-0.645-3.902-2.332-4.856-4.403
					c-1.191-2.588-0.874-5.613,0.361-8.124c0.701-1.425,1.666-2.684,2.815-3.773C292.807,258.004,293.519,260.107,294.837,261.808z
					 M296.353,241.907c0.833,1.102,1.869,2.003,3.055,2.671c-2.768,1.267-4.992,3.589-6.073,6.464
					c-0.421,1.119-0.636,2.312-0.688,3.512c-1.969-1.812-3.1-4.384-3.3-7.044c-0.224-2.979,0.702-5.888,2.292-8.387
					c0.806-1.267,1.783-2.408,2.863-3.448C294.379,237.878,294.982,240.094,296.353,241.907z M302.301,226.1
					c-2.876,1.395-5.684,3.129-7.008,6.181c-0.26,0.6-0.439,1.222-0.575,1.851c-1.624-1.826-2.401-4.314-2.159-6.745
					c0.25-2.503,1.746-4.77,3.832-6.14c1.094-0.718,2.311-1.173,3.583-1.444c-0.357,1.589-0.158,3.278,0.844,4.794
					C301.217,225.204,301.722,225.701,302.301,226.1z"/>
				<path style="fill:#25373F;" d="M319.248,258.783c-2.23,0.436-4.471,2.048-5.427,4.138c-0.886,1.938-0.708,4.501,0.881,6.036
					c0.655,0.633,1.473,1.004,2.332,1.254c-1.84,1.119-3.278,2.819-4.104,4.838c-1.02,2.492-1.243,6.03,1.195,7.765
					c1.217,0.866,2.777,1.144,4.224,1.357c0.31,0.046,0.616-0.077,0.709-0.403c0.078-0.271-0.095-0.664-0.403-0.709
					c-1.133-0.166-2.327-0.351-3.356-0.88c-1.134-0.583-1.769-1.541-1.896-2.816c-0.233-2.355,0.645-4.761,2.207-6.518
					c0.891-1.002,1.995-1.813,3.248-2.299c0.454-0.176,0.621-1.009,0-1.098c-1.31-0.188-2.76-0.511-3.634-1.594
					c-0.704-0.872-0.92-2.086-0.758-3.176c0.183-1.229,0.837-2.305,1.731-3.15c0.961-0.909,2.165-1.48,3.336-2.065
					C319.931,259.264,319.64,258.707,319.248,258.783z"/>
				<path style="fill:#25373F;" d="M265.522,247.968c-2.352-0.036-4.568-2.046-4.717-4.424c-0.177-2.811,2.001-5.36,4.238-6.786
					c1.286-0.82,2.715-1.351,4.22-1.589c0.591-0.093,0.439-0.882,0-1.052c-2.272-0.881-4.96-1.997-6.214-4.232
					c-1.511-2.692,0.197-5.71,2.38-7.417c0.698-0.546,1.463-1.01,2.242-1.432c0.783-0.425,1.619-0.747,2.31-1.315
					c0.247-0.203-0.03-0.524-0.28-0.482c-0.861,0.145-1.656,0.574-2.432,0.962c-0.791,0.395-1.564,0.83-2.279,1.352
					c-1.362,0.994-2.48,2.245-3.118,3.821c-0.582,1.44-0.632,3.046-0.022,4.484c0.552,1.302,1.566,2.313,2.708,3.115
					c0.875,0.614,1.831,1.098,2.81,1.529c-2.436,0.746-4.619,2.27-6.115,4.344c-0.949,1.316-1.615,2.933-1.553,4.578
					c0.052,1.395,0.664,2.718,1.612,3.731c1.089,1.165,2.612,1.888,4.213,1.912C266.228,249.076,266.229,247.979,265.522,247.968z"
					/>
				<path style="fill:#25373F;" d="M270.153,276.183c-2.149-0.886-5.059-0.659-6.186-3.095c-0.512-1.107-0.568-2.387-0.491-3.585
					c0.088-1.359,0.458-2.734,1.256-3.854c0.386-0.542,0.885-1.041,1.44-1.408c0.601-0.398,1.238-0.589,1.89-0.872
					c0.204-0.088,0.151-0.444-0.063-0.483c-1.307-0.232-2.768,0.666-3.624,1.582c-1.047,1.12-1.655,2.588-1.894,4.09
					c-0.433,2.725,0.022,6.097,2.826,7.366c1.452,0.657,3.074,0.754,4.541,1.364c0.288,0.12,0.627-0.13,0.705-0.4
					C270.647,276.56,270.437,276.3,270.153,276.183z"/>
				<path style="fill:#25373F;" d="M242.03,219.6c-2.637,0.772-5.257,2.668-6.418,5.214c-0.392,0.859-0.606,1.772-0.66,2.681
					c-0.02-0.004-0.031-0.023-0.053-0.023c-3.001-0.038-5.725,2.043-7.024,4.674c-1.397,2.829-1.002,6.182,0.699,8.793
					c0.743,1.141,1.711,2.128,2.84,2.883c-2.523,1.073-4.192,3.733-5.102,6.225c-1.138,3.116-1.098,6.749,0.981,9.465
					c1.011,1.32,2.411,2.322,4.045,2.692c-0.019,0.217-0.056,0.434-0.048,0.649c0.053,1.551,0.975,2.841,2.295,3.604
					c1.701,0.983,3.718,0.948,5.618,0.862c0.748-0.034,0.752-1.201,0-1.167c-1.504,0.068-3.125,0.162-4.539-0.452
					c-1.176-0.51-2.162-1.508-2.209-2.847c-0.049-1.375,0.574-2.795,1.222-3.979c0.632-1.155,1.434-2.204,2.38-3.12
					c1.072-1.038,2.312-1.872,3.669-2.491c0.487-0.222,0.291-0.916-0.139-1.059c-1.399-0.467-2.85-0.957-4.037-1.861
					c-1.197-0.911-1.909-2.253-1.957-3.76c-0.051-1.586,0.483-3.151,1.194-4.549c0.711-1.396,1.616-2.727,2.683-3.876
					c1.18-1.271,2.608-2.288,4.356-2.544c0.518-0.076,0.519-0.816,0.137-1.051c-1.256-0.774-2.527-1.562-3.699-2.46
					c-1.019-0.78-1.804-1.732-2.094-3.003c-0.564-2.471,0.684-4.85,2.485-6.464c1.087-0.975,2.39-1.657,3.657-2.363
					C242.676,220.071,242.432,219.482,242.03,219.6z M234.277,250.773c1.047,0.988,2.359,1.6,3.702,2.097
					c-2.215,1.281-4.076,3.175-5.306,5.419c-0.47,0.857-0.894,1.822-1.148,2.811c-2.529-0.63-4.283-2.934-4.738-5.436
					c-0.542-2.976,0.579-6.318,2.416-8.666c0.892-1.141,2.053-2.051,3.464-2.409C232.206,246.799,232.483,249.079,234.277,250.773z
					 M236.848,232.407c1.008,0.928,2.189,1.701,3.37,2.432c-2.785,1.005-4.872,3.741-6.23,6.24c-0.402,0.74-0.757,1.543-1.023,2.373
					c-2.487-1.254-4.305-3.654-4.78-6.408c-0.46-2.671,0.67-5.37,2.719-7.097c1.144-0.964,2.56-1.579,4.039-1.797
					C235.002,229.73,235.596,231.255,236.848,232.407z"/>
				<path style="fill:#25373F;" d="M204.919,235.837c-2.539,0.717-5.045,2.366-6.498,4.593c-0.197,0.302-0.367,0.62-0.521,0.946
					c-1.447,0.139-2.954,0.728-4.256,1.35c-1.313,0.627-2.483,1.496-3.348,2.675c-0.799,1.089-1.309,2.466-1.192,3.831
					c0.112,1.307,0.728,2.463,1.601,3.423c0.732,0.805,1.613,1.464,2.525,2.064c-2.611,1.044-4.872,2.933-6.311,5.361
					c-0.471,0.795-0.845,1.662-0.939,2.588c-0.091,0.897,0.145,1.768,0.494,2.587c0.6,1.408,1.527,2.678,2.672,3.693
					c1.29,1.144,2.836,1.974,4.51,2.393c-0.052,1.594,0.502,3.168,1.849,4.184c1.129,0.852,2.549,1.182,3.906,1.472
					c0.711,0.152,1.014-0.939,0.301-1.092c-1.298-0.278-2.754-0.562-3.773-1.478c-0.981-0.882-1.297-2.201-1.145-3.479
					c0.349-2.923,2.961-4.794,5.222-6.301c0.358-0.238,0.384-0.952-0.135-1.031c-2.42-0.367-4.112-2.445-4.608-4.756
					c-0.549-2.557,0.667-5.071,2.524-6.788c1.097-1.014,2.422-1.774,3.836-2.251c0.476-0.16,0.579-0.964,0-1.072
					c-2.019-0.374-3.351-2.332-3.358-4.324c-0.009-2.403,1.539-4.528,3.416-5.888c1.101-0.797,2.328-1.369,3.51-2.028
					C205.567,236.307,205.322,235.724,204.919,235.837z M195.753,262.416c0.699,0.872,1.62,1.565,2.658,1.967
					c-1.764,1.24-3.454,2.682-4.285,4.71c-0.146,0.355-0.248,0.726-0.33,1.101c-2.565-0.692-4.78-2.443-6.011-4.806
					c-0.341-0.655-0.646-1.381-0.689-2.126c-0.047-0.807,0.236-1.583,0.615-2.283c0.689-1.274,1.642-2.394,2.75-3.323
					c1.136-0.953,2.462-1.664,3.869-2.126C193.675,257.904,194.176,260.448,195.753,262.416z M199.988,249.305
					c-2.239,1.055-4.198,2.784-5.227,5.052c-1.823-1.126-4.013-2.521-4.497-4.768c-0.549-2.556,1.555-4.758,3.63-5.851
					c0.662-0.349,1.356-0.627,2.062-0.873c0.526-0.183,1.059-0.354,1.578-0.556c-0.565,1.765-0.476,3.707,0.603,5.305
					C198.614,248.319,199.253,248.897,199.988,249.305z"/>
				<path style="fill:#25373F;" d="M171.496,234.782c-2.31-0.012-4.693,1.329-5.96,3.296c-2.166-0.287-4.433,0.9-5.731,2.587
					c-0.652,0.848-1.051,1.837-1.215,2.865c-0.01-0.004-0.012-0.015-0.023-0.018c-2.42-0.651-4.985,0.928-6.088,3.049
					c-0.574,1.103-0.854,2.37-0.788,3.613c0.037,0.698,0.17,1.388,0.513,2.004c0.298,0.533,0.697,1.023,1.071,1.505
					c0.415,0.534,0.854,1.051,1.383,1.476c0.329,0.265,0.822,0.648,1.306,0.778c-0.064,0.402-0.137,0.803-0.156,1.209
					c-0.059,1.225,0.002,2.675,0.881,3.622c0.531,0.571,1.276,0.872,1.973,1.181c0.829,0.368,1.657,0.736,2.486,1.105
					c0.196,0.931,0.658,1.812,1.372,2.516c0.835,0.824,1.95,1.327,3.132,1.303c0.75-0.015,0.753-1.182,0-1.167
					c-2.053,0.041-3.729-2.086-3.451-4.078c0.298-2.136,2.444-3.633,4.508-3.67c0.635-0.011,0.806-0.985,0.154-1.136
					c-2.231-0.515-3.841-2.461-4.298-4.657c-0.488-2.346,0.636-4.665,2.47-6.113c1.056-0.833,2.361-1.387,3.7-1.53
					c0.495-0.053,0.845-0.784,0.285-1.051c-0.901-0.431-1.826-0.918-2.512-1.661c-0.743-0.805-0.815-1.781-0.292-2.736
					c1.096-2.004,3.183-3.207,5.369-3.649C171.95,235.349,171.857,234.784,171.496,234.782z M156.036,254.616
					c-0.256-0.133-0.498-0.293-0.72-0.477c-0.499-0.414-0.928-0.915-1.323-1.428c-0.427-0.554-0.89-1.11-1.06-1.802
					c-0.163-0.661-0.156-1.399-0.049-2.069c0.21-1.328,0.859-2.573,1.905-3.432c1.043-0.856,2.35-1.172,3.676-1.146
					c0.022,0,0.032-0.017,0.053-0.02c-0.048,0.942,0.092,1.898,0.443,2.794c0.343,0.875,0.84,1.646,1.479,2.305
					c-1.803,0.857-3.116,2.462-3.877,4.322c-0.139,0.339-0.222,0.698-0.323,1.05C156.173,254.684,156.106,254.653,156.036,254.616z
					 M162.883,255.523c0.517,0.667,1.157,1.223,1.872,1.657c-1.355,0.493-2.547,1.446-3.205,2.74
					c-0.293,0.576-0.443,1.186-0.488,1.798c-0.395-0.175-0.789-0.35-1.184-0.524c-0.604-0.268-1.238-0.507-1.807-0.845
					c-1.028-0.61-1.1-1.759-1.088-2.85c0.022-1.976,0.658-4.055,1.956-5.573c0.668-0.781,1.498-1.379,2.457-1.735
					C161.171,252.061,161.685,253.979,162.883,255.523z M167.141,243.732c-2.141,0.65-4.036,2.109-5.056,4.128
					c-0.176,0.348-0.313,0.706-0.427,1.068c-1.787-1.456-2.512-4.071-1.781-6.245c0.393-1.168,1.231-2.16,2.246-2.844
					c0.922-0.621,1.923-0.905,2.995-1.016c-0.002,0.005-0.005,0.009-0.008,0.014c-0.551,1.2-0.439,2.448,0.377,3.491
					C165.937,242.902,166.519,243.348,167.141,243.732z"/>
				<path style="fill:#25373F;" d="M217.265,232.362c-1.329-0.247-2.683-0.282-3.846-1.059c-1.006-0.671-1.501-1.774-1.198-2.963
					c0.597-2.343,3.001-3.669,5.178-4.211c0.621-0.155,1.248-0.27,1.883-0.345c0.339-0.04,0.68-0.07,1.021-0.094
					c0.31-0.022,0.62,0.004,0.889-0.173c0.174-0.114,0.155-0.326,0-0.444c-0.258-0.196-0.578-0.18-0.889-0.197
					c-0.34-0.019-0.68-0.022-1.021-0.01c-0.68,0.023-1.367,0.102-2.034,0.238c-1.295,0.264-2.587,0.784-3.656,1.568
					c-1.138,0.835-2.106,1.978-2.481,3.363c-0.385,1.421,0.025,2.889,1.134,3.866c1.3,1.146,3.172,1.548,4.863,1.621
					C217.762,233.55,217.926,232.485,217.265,232.362z"/>
				<path style="fill:#25373F;" d="M220.026,271.152c-0.981,0.329-1.889,0.865-2.637,1.582c-0.769,0.737-1.369,1.691-1.5,2.763
					c-0.129,1.05,0.272,2.052,0.97,2.828c0.766,0.852,1.864,1.339,2.967,1.577c0.443,0.095,1.192,0.346,1.558-0.004
					c0.183-0.176,0.228-0.405,0.126-0.633c-0.159-0.354-0.484-0.363-0.823-0.411c-1.062-0.151-2.155-0.466-2.926-1.252
					c-0.729-0.743-0.962-1.739-0.569-2.71c0.439-1.084,1.385-1.921,2.396-2.464c0.532-0.285,1.1-0.487,1.691-0.611
					c0.572-0.119,1.2-0.07,1.757-0.229c0.254-0.072,0.343-0.474,0.078-0.6C222.219,270.563,220.919,270.853,220.026,271.152z"/>
				<path style="fill:#25373F;" d="M321.616,216.617c-1.427-0.036-2.838,0.065-4.251,0.27c-1.751,0.255-3.572,0.692-5.101,1.616
					c-1.539,0.93-2.536,2.41-2.504,4.243c0.036,2.112,1.032,3.992,2.892,5.037c1.641,0.922,3.827,1.325,5.693,1.061
					c0.702-0.1,0.5-1.183-0.162-1.201c-1.487-0.04-2.889-0.059-4.292-0.639c-1.603-0.664-2.708-1.998-2.906-3.742
					c-0.09-0.794-0.038-1.597,0.355-2.299c0.337-0.601,0.852-1.072,1.426-1.445c1.367-0.888,2.994-1.292,4.574-1.611
					c1.437-0.29,2.935-0.374,4.345-0.786C321.964,217.04,321.908,216.624,321.616,216.617z"/>
				<path style="fill:#25373F;" d="M135.048,246.109c-0.67,0.025-1.345,0.124-1.998,0.276c-1.306,0.304-2.601,0.887-3.677,1.689
					c-1.005,0.748-1.853,1.765-1.936,3.065c-0.079,1.245,0.595,2.473,1.503,3.284c0.785,0.7,1.739,1.129,2.725,1.469
					c-0.819,0.246-1.684,0.367-2.498,0.634c-1.262,0.413-2.419,1.163-3.172,2.272c-0.725,1.065-0.978,2.53-0.521,3.75
					c0.432,1.153,1.386,1.924,2.528,2.322c0.607,0.212,1.252,0.309,1.89,0.365c0.672,0.059,1.406,0.133,2.047-0.094
					c0.435-0.154,0.475-0.786,0-0.924c-0.499-0.145-0.987-0.108-1.503-0.129c-0.507-0.021-1.012-0.071-1.508-0.185
					c-0.892-0.205-1.75-0.62-2.204-1.453c-0.536-0.982-0.301-2.231,0.321-3.114c0.632-0.897,1.656-1.469,2.691-1.771
					c1.295-0.377,2.687-0.475,3.823-1.272c0.389-0.273,0.365-0.905-0.136-1.043c-1.383-0.382-2.904-0.774-3.946-1.827
					c-0.966-0.977-1.326-2.376-0.487-3.548c0.813-1.136,2.268-1.872,3.555-2.311c0.695-0.237,1.412-0.42,2.142-0.513
					c0.699-0.089,1.495,0.036,2.119-0.324c0.085-0.049,0.114-0.188,0.033-0.256C136.333,246.043,135.68,246.086,135.048,246.109z"/>
				<path style="fill:#25373F;" d="M115.702,251.519c-1.201,0.409-2.479,0.909-3.325,1.899c-0.787,0.921-1.168,2.162-0.689,3.321
					c0.436,1.055,1.417,1.79,2.428,2.254c0.698,0.32,1.437,0.556,2.184,0.729c0.776,0.179,1.662,0.37,2.461,0.307
					c0.577-0.046,0.81-0.987,0.148-1.091c-0.77-0.121-1.542-0.134-2.309-0.3c-0.689-0.149-1.391-0.341-2.033-0.637
					c-0.985-0.454-2.119-1.26-2.047-2.48c0.081-1.388,1.437-2.237,2.583-2.722c0.652-0.276,1.322-0.547,2.003-0.745
					c0.724-0.211,1.372-0.238,2.11-0.109c0.347,0.061,0.508-0.345,0.233-0.552C118.387,250.591,116.814,251.141,115.702,251.519z"/>
				<path style="fill:#25373F;" d="M362.418,276.265c-2.301-0.199-5.089-0.488-6.721-2.327c-1.924-2.167-0.886-5.425,0.999-7.224
					c0.575-0.549,1.23-1.008,1.918-1.404c0.355-0.204,0.711-0.406,1.079-0.588c0.312-0.154,0.698-0.237,0.808-0.598
					c0.036-0.118-0.025-0.243-0.125-0.306c-0.313-0.198-0.697,0.009-1.012,0.125c-0.378,0.139-0.757,0.289-1.118,0.468
					c-0.711,0.352-1.373,0.792-1.983,1.299c-1.21,1.007-2.151,2.355-2.527,3.895c-0.373,1.526-0.22,3.209,0.657,4.541
					c0.772,1.173,1.948,1.94,3.242,2.434c1.522,0.581,3.171,0.77,4.783,0.915C363.205,277.565,363.202,276.333,362.418,276.265z"/>
				<path style="fill:#25373F;" d="M356.778,236.976c0.638,0.007,0.819-1.035,0.155-1.146c-0.831-0.139-1.678-0.18-2.516-0.258
					c-0.672-0.063-1.389-0.139-1.978-0.495c-0.895-0.541-1.057-1.656-0.813-2.6c0.692-2.678,3.876-3.137,6.199-3.427
					c0.613-0.077,0.876-1.008,0.159-1.174c-2.047-0.475-4.861-1.43-5.102-3.915c-0.208-2.152,2.092-3.473,3.745-4.26
					c1.335-0.636,2.754-1.122,4.252-0.939c0.409,0.05,0.439-0.561,0.092-0.682c-1.441-0.502-2.94-0.048-4.289,0.524
					c-1.156,0.49-2.293,1.066-3.25,1.892c-0.913,0.788-1.584,1.85-1.655,3.076c-0.076,1.309,0.606,2.59,1.544,3.465
					c0.569,0.53,1.233,0.917,1.937,1.224c-1.618,0.36-3.16,1.004-4.129,2.403c-1.209,1.746-1.194,4.569,0.936,5.599
					c0.673,0.325,1.404,0.438,2.141,0.513C355.057,236.859,355.922,236.967,356.778,236.976z"/>
			</g>
		</g>
	</g>
</g>
</svg>
