<?xml version="1.0" encoding="utf-8"?>
<!-- Generator: Adobe Illustrator 27.5.0, SVG Export Plug-In . SVG Version: 6.00 Build 0)  -->
<svg version="1.1" id="Capa_1" xmlns="http://www.w3.org/2000/svg" xmlns:xlink="http://www.w3.org/1999/xlink" x="0px" y="0px"
	 viewBox="0 0 2122 2122" style="enable-background:new 0 0 2122 2122;" xml:space="preserve">
<path style="fill:#EF8989;" d="M1831.565,788.132c-334.627,73.577-462.355,110.556-549.845,7.025
	c-56.39-66.728-43.682-182.624-71.778-340.664c-28.096-158.04-54.768-340.664-147.582-340.664
	c-92.815,0-119.485,182.624-147.582,340.664c-28.095,158.04-15.389,273.935-71.777,340.664
	c-87.49,103.531-215.219,66.553-549.846-7.025c-55.837-12.277-189.062-41.884-214.231,14.048
	c-31.608,70.24,122.459,138.945,242.327,200.184c114.109,58.297,347.688,161.552,344.36,292.269
	c-2.872,112.834-87.72,206.092-158.224,294.233c-70.505,88.141-126.032,267.391-133.888,379.988
	c-0.556,7.983-0.691,16.391,2.952,23.514c9.634,18.837,36.923,16.907,57.267,11.098c106.576-30.439,204.172-130.294,277.967-212.994
	c36.904-41.358,166.828-138.663,210.119-173.28c48.969-39.159,77.873-103.581,140.557-102.077
	c62.683-1.504,101.967,62.917,150.938,102.077c43.29,34.617,150.147,101.909,187.052,143.266
	c73.794,82.701,171.39,182.556,277.965,212.994c20.344,5.81,47.632,7.74,57.267-11.096c3.644-7.125,3.508-15.532,2.953-23.514
	c-7.857-112.598-43.83-268.858-114.334-357c-70.505-88.141-162.222-174.375-165.094-287.209
	c-3.328-130.718,236.427-233.972,344.36-292.269c118.435-63.97,243.874-94.824,243.103-175.6
	C2045.988,765.433,1887.403,775.854,1831.565,788.132z"/>
<path style="fill:#EF8989;" d="M1742.624,823.494c6.078-11.542,26.1-2.979,35.687-11.821c2.024-1.866,3.432-4.428,5.796-5.837
	c5.672-3.378,13.228,2.402,14.16,8.936c0.932,6.534-2.425,12.832-5.67,18.579c-2.448,4.339-4.997,8.796-8.928,11.855
	c-3.931,3.06-9.639,4.399-13.949,1.901l-9.503,0.067c-5.153-2.124-10.465-4.353-14.321-8.378
	C1742.042,834.769,1740.027,828.424,1742.624,823.494z"/>
<path style="fill:#EF8989;" d="M1697.319,861.214c10.742-7.4,24.498,9.481,37.095,6.101c2.66-0.713,5.096-2.328,7.845-2.478
	c6.591-0.358,10.599,8.269,8.391,14.489c-2.21,6.219-8.107,10.238-13.649,13.823c-4.182,2.705-8.509,5.469-13.411,6.353
	c-4.904,0.884-10.581-0.579-13.237-4.793l-8.447-4.353c-3.576-4.273-7.248-8.715-8.792-14.07
	C1691.569,870.93,1692.73,864.374,1697.319,861.214z"/>
<path style="fill:#EF8989;" d="M1592.211,878.301c0.998-4.527,5.643-7.116,9.816-9.134c7.513-3.632,15.53-7.36,23.83-6.475
	c8.298,0.883,16.464,8.421,14.765,16.591l-16.58,9.791c0.155,4.188-4.202,7.415-8.39,7.613c-4.186,0.199-8.138-1.761-11.868-3.669
	C1597.779,889.945,1590.76,884.887,1592.211,878.301z"/>
<path style="fill:#EF8989;" d="M1550.831,902.989c7.966-1.268,13.966,6.813,17.932,13.837l-0.966,4.622l-15.745,10.256
	c-3.125,2.035-7.516,3.996-10.224,1.432c-1.522-1.443-1.745-3.75-1.873-5.844C1539.357,917.523,1541.165,904.527,1550.831,902.989z"
	/>
<path style="fill:#EF8989;" d="M1488.103,879.432c1.642-7.938,10.363-13.137,18.433-12.395c8.072,0.741,15.101,6.35,19.333,13.264
	l3.814,12.973c-5.34,7.536-12.892,16.013-21.932,14.12c-4.027-0.843-7.318-3.676-10.223-6.589
	C1491.79,895.054,1486.457,887.388,1488.103,879.432z"/>
<path style="fill:#EF8989;" d="M1421.576,871.696c13.888-0.794,30.816,6.458,31.375,20.357l-5.423,1.692l-21.24-3.069
	c4.535-0.268,4.531,7.857,0.291,9.486c-4.241,1.63-8.834-0.968-12.608-3.497c-4.551-3.05-9.542-6.975-9.705-12.451
	C1404.03,876.309,1413.682,872.147,1421.576,871.696z"/>
<path style="fill:#EF8989;" d="M1344.068,899.182l13.041,4.307c0.487,5.685,0.088,11.446-1.182,17.009
	c-8.166-2.065-16.33-4.131-24.496-6.197c-2.35-0.594-4.777-1.226-6.677-2.73c-5.028-3.977-3.548-12.997,2.002-16.203
	C1332.307,892.161,1339.889,894.322,1344.068,899.182z"/>
<path style="fill:#EF8989;" d="M1253.18,817.854l4.442-19.656c3.901,14.82,18.039,24.402,31.743,31.257
	c13.705,6.857,28.728,12.913,37.894,25.194c1.974,2.648,3.693,5.88,3.038,9.117c-0.935,4.62-6.274,7.014-10.988,7.036
	c-4.713,0.021-9.329-1.549-14.04-1.485c-9.43,0.13-17.397,6.604-24.81,12.433c-2.134,1.677-4.808,3.423-7.367,2.518
	c-1.594-0.565-2.663-2.026-3.907-3.17c-5.069-4.659-14.223-5.056-16.543-11.537c-1.098-3.067-0.132-6.431,0.145-9.678
	c0.623-7.299-2.301-14.366-3.838-21.528C1247.41,831.193,1247.679,822.693,1253.18,817.854z"/>
<path style="fill:#EF8989;" d="M1229.808,646.927c1.423,7.779-0.345,18.139-8.083,19.774c-5.359,1.133-10.351-2.791-14.388-6.494
	c-3.349-3.071-6.955-6.921-6.371-11.427c0.582-4.506,8.477-6.425,9.286-1.954l-7.993-19.918c0.122-1.89,0.244-3.779,0.366-5.668
	C1216.264,618.505,1227.304,633.245,1229.808,646.927z"/>
<path style="fill:#EF8989;" d="M1229.169,744.656c-1.806,6.15-10.223,9.715-15.272,5.768c-1.91-1.492-3.098-3.702-4.229-5.846
	c-3.933-7.448-7.866-14.895-11.799-22.342c5.106-2.546,10.61-4.294,16.25-5.162l7.262,11.658
	C1227.089,731.647,1230.976,738.505,1229.169,744.656z"/>
<path style="fill:#EF8989;" d="M1214.294,563.265c2.625,7.669-0.37,17.37-7.697,20.838c-7.343,3.475-16.051,0.101-22.994-4.12
	c-3.515-2.136-7.045-4.666-8.815-8.38c-3.972-8.339,2.486-17.677,8.55-24.644l13.506,0.647
	C1204.561,550.088,1211.67,555.596,1214.294,563.265z"/>
<path style="fill:#EF8989;" d="M1190.374,446.287c2.817,7.857,1.086,16.526-0.672,24.685c-0.977,4.53-2.397,9.656-6.561,11.693
	c-6.058,2.964-12.628-2.665-17.031-7.775c-2.735-3.176-5.571-6.554-6.365-10.669c-0.797-4.115,1.312-9.11,5.418-9.948l5.604-18.422
	C1178.307,432.274,1187.558,438.432,1190.374,446.287z"/>
<path style="fill:#EF8989;" d="M1168.91,528.701c0.785,9.756-11.418,14.577-21.053,16.302c-2.065,0.37-4.359,0.698-6.121-0.442
	c-3.13-2.026-2.259-6.757-1.019-10.273l6.253-17.72l4.263-2.029C1158.995,516.737,1168.263,520.661,1168.91,528.701z"/>
<path style="fill:#EF8989;" d="M1174.953,376.492c-1.989,5.207-8.085,7.881-13.654,7.643c-5.569-0.239-10.75-2.758-15.747-5.226
	l-6.223-7.182c-4.722-1.587-7.482-6.759-7.779-11.732c-0.298-4.973,1.368-9.83,3.01-14.533c2.175-6.23,4.691-12.91,10.213-16.523
	c5.522-3.613,14.852-1.752,16.058,4.736c0.503,2.707-0.492,5.456-0.556,8.207C1159.962,354.922,1179.611,364.308,1174.953,376.492z"
	/>
<path style="fill:#EF8989;" d="M1112.413,269.653c1.701-8.953,7.614-17.011,15.642-21.323l4.981-6.895
	c11.322-6.259,27.755,2.621,28.726,15.519c0.209,2.768-0.151,5.7,1.067,8.195c2.085,4.272,8.034,5.715,9.774,10.139
	c2.428,6.168-4.833,11.514-10.891,14.205c-5.372,2.387-10.743,4.773-16.115,7.16c-2.235,0.994-5.287,1.805-6.767-0.143
	c-0.788-1.037-0.741-2.453-0.811-3.754c-0.431-8.015-7.386-15.166-15.387-15.818c-3.814-0.311-8.834,0.012-10.168-3.574
	C1112.025,272.189,1112.177,270.884,1112.413,269.653z"/>
<path style="fill:#EF8989;" d="M1007.044,209.459c2.719-14.288,12.154-27.15,24.966-34.033l7.95-11.003
	c18.068-9.989,44.3,4.182,45.848,24.769c0.332,4.419-0.24,9.098,1.704,13.079c3.328,6.821,12.821,9.123,15.601,16.184
	c3.876,9.845-7.714,18.377-17.382,22.673c-8.574,3.809-17.147,7.617-25.721,11.427c-3.568,1.585-8.44,2.879-10.802-0.229
	c-1.257-1.654-1.181-3.915-1.294-5.99c-0.688-12.795-11.788-24.207-24.559-25.248c-6.086-0.496-14.099,0.019-16.23-5.704
	C1006.426,213.509,1006.67,211.425,1007.044,209.459z"/>
<path style="fill:#EF8989;" d="M962.05,301.87c1.703-8.952,7.614-17.011,15.642-21.323l4.981-6.894
	c11.322-6.258,27.755,2.62,28.726,15.519c0.208,2.768-0.151,5.7,1.067,8.195c2.085,4.273,8.033,5.715,9.774,10.14
	c2.429,6.168-4.833,11.513-10.892,14.205c-5.371,2.386-10.743,4.773-16.114,7.16c-2.235,0.992-5.288,1.803-6.768-0.144
	c-0.788-1.036-0.74-2.453-0.811-3.752c-0.431-8.017-7.385-15.167-15.387-15.819c-3.814-0.311-8.833,0.012-10.169-3.574
	C961.662,304.408,961.815,303.102,962.05,301.87z"/>
<path style="fill:#EF8989;" d="M954.445,358.586c1.544-4.603,3.58-9.309,7.415-12.285c3.836-2.977,9.938-3.531,13.279-0.007
	c5.632,5.941-0.702,16.705,3.691,23.613c1.099,1.728,2.769,3.005,4.097,4.564c7.981,9.367,1.175,23.545-5.726,33.734
	c-1.475,2.178-3.169,4.515-5.715,5.174c-3.03,0.784-6.085-1.109-8.422-3.192c-7.033-6.263-11.647-15.177-12.703-24.534l-0.046-9.904
	C951.186,369.92,952.57,364.17,954.445,358.586z"/>
<path style="fill:#EF8989;" d="M978.868,558.319c-4.895,4.62-13.73,5.092-18.005-0.108l-4.055,1.003
	c-1.144-8.207-1.212-17.267,3.704-23.938c4.916-6.668,16.466-8.628,21.191-1.82c1.257,1.813,1.888,3.988,2.263,6.161
	C985.112,546.252,983.764,553.697,978.868,558.319z"/>
<path style="fill:#EF8989;" d="M943.378,450.107l8.558-8.563c11.285-0.799,24.352,5.511,25.827,16.729
	c0.356,2.695-0.096,5.683-2.021,7.603c-1.324,1.322-3.165,1.97-4.952,2.529c-7.167,2.243-15.228,3.652-21.968,0.344
	C942.081,465.439,938.314,455.651,943.378,450.107z"/>
<path style="fill:#EF8989;" d="M923.515,525.993c2.378-5.595,6.327-10.434,8.527-16.101l8.645,3.223
	c4.81,6.96,7.918,16.017,4.796,23.881c-3.123,7.864-14.57,12.141-20.511,6.118C920.703,538.785,921.136,531.589,923.515,525.993z"/>
<path style="fill:#EF8989;" d="M918.883,593l9.165-12.533c7.598-0.582,13.53,7.577,13.525,15.198
	c-0.007,7.621-4.122,14.554-8.105,21.049c-1.141,1.86-2.477,3.871-4.583,4.438c-1.563,0.421-3.229-0.065-4.693-0.752
	C914.391,615.794,911.512,600.932,918.883,593z"/>
<path style="fill:#EF8989;" d="M922.274,637.806c8.575,2.49,18.759,6.806,19.646,15.692c0.607,6.089-4.169,11.9-10.04,13.625
	c-5.872,1.723-12.366-0.08-17.385-3.582L922.274,637.806z"/>
<path style="fill:#EF8989;" d="M906.594,693.823c4.111-2.598,9.911-0.671,12.949,3.127c3.036,3.798,3.87,8.895,4.027,13.755
	c0.308,9.506-1.591,19.076-5.503,27.744c-7.318-0.598-14.147-5.386-17.204-12.062l-2.448-2.423
	C905.135,715.62,908.175,704.418,906.594,693.823z"/>
<path style="fill:#EF8989;" d="M863.088,822.856l1.604-5.435c3.529-11.791,7.058-23.581,10.587-35.371
	c1.583-5.29,3.48-11.015,8.102-14.038c5.407-3.534,13.228-1.824,17.536,2.987c4.309,4.811,5.353,11.964,3.767,18.225
	c-1.209,4.773-3.8,9.227-4.12,14.141c-0.721,11.046,9.904,22.75,3.798,31.983c-4.148,6.274-13.359,6.31-20.63,4.378
	c-7.271-1.931-14.842-5.133-22.034-2.928C860.554,832.175,861.053,827.162,863.088,822.856z"/>
<path style="fill:#EF8989;" d="M781.3,864.299c1.351-1.893,3.966-2.231,6.264-2.585c10.734-1.656,20.79-7.376,27.702-15.754
	l10.924-0.959c3.268-5.797,13.028-3.924,16.36,1.836c3.333,5.76,2.09,13.008,0.263,19.407c-1.262,4.416-2.756,8.765-4.475,13.023
	c-0.823,2.042-1.902,4.266-3.966,5.033c-3.421,1.272-6.564-2.128-9.613-4.131c-7.146-4.695-16.532-1.905-25.043-1.091
	c-8.511,0.815-19.59-3.175-19.322-11.72C780.428,866.279,780.673,865.177,781.3,864.299z"/>
<path style="fill:#EF8989;" d="M697.379,893.836c5.851-7.381,14.485-12.499,23.768-14.088l9.884-0.614
	c5.867,0.537,11.687,1.59,17.37,3.141c4.684,1.278,9.498,3.041,12.689,6.699c3.192,3.659,4.094,9.721,0.767,13.257
	c-5.608,5.963-16.717,0.255-23.362,5.037c-1.662,1.196-2.842,2.938-4.323,4.353c-8.894,8.504-23.438,2.521-34.006-3.786
	c-2.258-1.348-4.69-2.905-5.492-5.409C693.719,899.446,695.434,896.288,697.379,893.836z"/>
<path style="fill:#EF8989;" d="M638.097,882.97c2.918-6.919,12.475-11.24,18.299-6.503l9.039,8.054
	c1.445,11.221-4.107,24.628-15.222,26.744c-2.67,0.508-5.681,0.228-7.708-1.583c-1.396-1.247-2.148-3.047-2.808-4.798
	C637.049,897.857,635.181,889.89,638.097,882.97z"/>
<path style="fill:#EF8989;" d="M562.489,863.417c4.076-4.51,11.285-4.489,17.009-2.434c5.722,2.053,10.778,5.718,16.563,7.591
	l-2.722,8.816c-6.673,5.2-15.537,8.823-23.567,6.155C561.741,880.877,556.815,869.695,562.489,863.417z"/>
<path style="fill:#EF8989;" d="M548.237,896.124c8.128-1.613,17.171-2.199,24.111,2.327c6.94,4.528,9.557,15.946,3.03,21.052
	c-1.737,1.359-3.874,2.114-6.022,2.613c-6.558,1.523-14.069,0.603-18.962-4.021c-4.893-4.621-5.87-13.414-0.924-17.98
	L548.237,896.124z"/>
<path style="fill:#EF8989;" d="M485.284,867.064c4.038-10.049,18.709-13.774,27.052-6.869l13.036,8.432
	c1.016,7.552-6.791,13.942-14.398,14.372c-7.609,0.432-14.766-3.28-21.479-6.885c-1.922-1.033-4.007-2.25-4.693-4.322
	C484.292,870.256,484.681,868.565,485.284,867.064z"/>
<path style="fill:#EF8989;" d="M441.659,859.853l26.138,6.293c-1.995,8.703-5.721,19.119-14.541,20.512
	c-6.044,0.954-12.119-3.481-14.178-9.243C437.021,871.651,438.45,865.064,441.659,859.853z"/>
<path style="fill:#EF8989;" d="M378.135,849.843l2.279-2.582c8.715,6.23,20.073,8.624,30.56,6.439
	c2.829,3.955,1.237,9.857-2.38,13.106c-3.617,3.249-8.657,4.373-13.502,4.808c-9.473,0.851-19.136-0.496-28.013-3.906
	C367.257,860.368,371.645,853.277,378.135,849.843z"/>
<path style="fill:#EF8989;" d="M171.325,795.282c0.369-1.015,0.948-1.984,1.816-2.622c1.876-1.377,4.465-0.88,6.759-0.498
	c10.713,1.782,22.055-0.508,31.238-6.306l10.675,2.503c4.917-4.485,13.603,0.345,14.968,6.858c1.365,6.514-2.08,13.01-5.817,18.518
	c-2.578,3.8-5.357,7.464-8.322,10.971c-1.42,1.683-3.14,3.457-5.34,3.541c-3.646,0.139-5.57-4.073-7.839-6.928
	c-5.32-6.693-15.108-6.977-23.448-8.865C177.676,810.568,168.399,803.316,171.325,795.282z"/>
<path style="fill:#EF8989;" d="M181.382,874.737c-8.247,4.546-18.189,5.929-27.365,3.807l-9.353-3.255
	c-5.204-2.763-10.164-5.983-14.807-9.611c-3.826-2.989-7.584-6.475-9.114-11.083c-1.529-4.608-0.018-10.547,4.417-12.524
	c7.479-3.331,15.517,6.227,23.494,4.385c1.995-0.461,3.755-1.61,5.667-2.343c11.491-4.406,22.592,6.735,29.9,16.634
	c1.563,2.117,3.202,4.492,2.976,7.112C186.928,870.978,184.124,873.227,181.382,874.737z"/>
<path style="fill:#EF8989;" d="M238.85,886.842c-0.272,7.504-1.627,15.575-6.992,20.829c-5.367,5.253-15.85,5.545-19.392-1.076
	l-5.223-10.921c3.005-10.908,13.307-21.127,24.376-18.782c2.659,0.563,5.326,1.985,6.496,4.438
	C238.92,883.021,238.918,884.971,238.85,886.842z"/>
<path style="fill:#EF8989;" d="M264.001,839.229c1.512-7.369,4.274-15.111,1.661-22.165c4.551-1.407,9.583-1.195,14,0.589
	l5.518,1.291c11.973,2.847,23.946,5.695,35.92,8.543c5.371,1.279,11.196,2.844,14.479,7.286c3.837,5.195,2.578,13.101-1.978,17.678
	c-4.557,4.578-11.638,6.029-17.98,4.804c-4.836-0.934-9.43-3.265-14.354-3.304c-11.068-0.088-22.145,11.19-31.713,5.624
	C263.052,855.792,262.489,846.598,264.001,839.229z"/>
<path style="fill:#EF8989;" d="M294.033,954.928c-5.503,2.584-12.144-0.222-16.628-4.328c-4.485-4.106-7.731-9.441-12.342-13.404
	l5.918-7.078c8.165-2.216,17.74-2.131,24.114,3.432C301.471,939.115,301.691,951.332,294.033,954.928z"/>
<path style="fill:#EF8989;" d="M320.223,926.114l-0.405,4.158c-8.119-1.654-16.686-4.608-21.337-11.465
	c-4.651-6.857-2.652-18.401,5.342-20.588c2.126-0.582,4.388-0.453,6.564-0.081c6.636,1.13,13.207,4.881,15.935,11.037
	C329.047,915.328,326.55,923.815,320.223,926.114z"/>
<path style="fill:#EF8989;" d="M366.646,981.406c-7.608,7.707-22.579,5.472-27.604-4.12l-8.764-12.816
	c1.982-7.357,11.652-10.234,18.835-7.691c7.184,2.544,12.349,8.733,17.147,14.653c1.374,1.696,2.826,3.624,2.659,5.799
	C368.795,978.845,367.783,980.255,366.646,981.406z"/>
<path style="fill:#EF8989;" d="M404.093,1004.918l-21.673-15.906c5.203-7.256,12.666-15.422,21.339-13.297
	c5.944,1.455,9.833,7.895,9.503,14.005C412.931,995.83,409.068,1001.352,404.093,1004.918z"/>
<path style="fill:#EF8989;" d="M458.813,1038.703l-3.101,1.501c-5.629-9.115-15.179-15.713-25.695-17.751
	c-1.082-4.742,2.667-9.569,7.261-11.168c4.593-1.598,9.675-0.686,14.31,0.784c9.065,2.876,17.457,7.854,24.327,14.43
	C472.914,1033.201,466.125,1038.044,458.813,1038.703z"/>
<path style="fill:#EF8989;" d="M559.973,1092.606c-4.242,6.212-9.781,12.284-10.098,19.8c-4.74-0.462-9.301-2.602-12.685-5.955
	l-4.589-3.323c-9.943-7.253-19.884-14.51-29.826-21.763c-4.462-3.255-9.228-6.951-10.537-12.316
	c-1.532-6.274,2.685-13.079,8.656-15.539c5.972-2.461,13.065-1.062,18.44,2.519c4.099,2.73,7.435,6.656,11.961,8.596
	c10.175,4.359,24.75-1.761,31.422,7.07C567.251,1077.698,564.216,1086.394,559.973,1092.606z"/>
<path style="fill:#EF8989;" d="M645.675,1168.959c-0.733,0.793-1.64,1.464-2.689,1.717c-2.261,0.544-4.458-0.914-6.425-2.153
	c-9.192-5.784-20.537-8.056-31.248-6.258l-8.878-6.435c-6.267,2.236-12.411-5.576-11.153-12.11
	c1.258-6.535,6.947-11.195,12.521-14.83c3.848-2.507,7.827-4.813,11.916-6.903c1.961-1.002,4.233-1.974,6.295-1.201
	c3.417,1.28,3.561,5.908,4.552,9.42c2.32,8.229,11.238,12.274,18.2,17.238C645.725,1152.406,651.478,1162.68,645.675,1168.959z"/>
<path style="fill:#EF8989;" d="M663.381,1444.935c6.119,0.005,12.476,2.25,16.299,7.027c3.824,4.778,4.407,12.278,0.42,16.919
	c-5.819,6.774-16.638,4.475-25.093,1.6L663.381,1444.935z"/>
<path style="fill:#EF8989;" d="M684.831,1386.203l3.395-0.583c6.332-3.72,14.671-3.73,21.011-0.026
	c-1.762,9.346-5.691,18.278-11.391,25.891c-2.914,3.893-6.517,7.592-11.182,8.965c-4.665,1.371-10.523-0.373-12.403-4.858
	C681.628,1407.814,685.557,1396.891,684.831,1386.203z"/>
<path style="fill:#EF8989;" d="M697.753,1341.49c-2.056-5.126-0.329-10.904,1.404-16.147c3.865-11.685,7.729-23.37,11.595-35.054
	l1.8-5.373c0.802-4.696,3.264-9.09,6.851-12.223c4.631,5.928,12.669,7.643,19.735,10.227c7.065,2.584,14.593,7.891,14.398,15.411
	c-0.288,11.065-15.703,14.568-21.442,24.033c-2.553,4.211-2.982,9.345-4.726,13.951c-2.288,6.04-7.244,11.304-13.532,12.777
	C707.548,1350.565,700.159,1347.484,697.753,1341.49z"/>
<path style="fill:#EF8989;" d="M724.597,1224.503c-1.033,4.474-2.299,8.894-3.797,13.237c-2.168,6.291-5.304,12.943-11.337,15.754
	c-6.032,2.81-15.104-1.249-14.459-7.872l-8.402-7.045c-0.863-10.827-5.826-21.277-13.673-28.786c-1.68-1.608-3.63-3.383-3.653-5.709
	c-0.01-1.079,0.42-2.122,1.011-3.025c4.679-7.157,16.044-4.077,22.55,1.468c6.509,5.544,12.603,13.21,21.15,13.458
	c3.646,0.106,8.171-0.88,10.244,2.123C725.483,1219.916,725.093,1222.356,724.597,1224.503z"/>
<path style="fill:#EF8989;" d="M655.836,1568.055c1.363,6.593-1.798,13.467-6.538,18.248c-1.553,1.567-3.318,2.988-5.386,3.753
	c-7.773,2.872-16.116-5.353-16.324-13.637c-0.205-8.284,5.043-15.67,10.684-21.739l2.749,3.147
	C647.503,1556.014,654.472,1561.464,655.836,1568.055z"/>
<path style="fill:#EF8989;" d="M646.604,1485.845c1.594,0.276,3.239,0.833,4.278,2.073c1.401,1.672,1.344,4.085,1.212,6.263
	c-0.458,7.606-1.058,15.647-5.42,21.895c-4.363,6.249-13.9,9.535-19.793,4.704l-0.329-15.522
	C625.058,1494.532,635.933,1484.005,646.604,1485.845z"/>
<path style="fill:#EF8989;" d="M564.853,1590.639l2.748,3.147c6.485-1.812,13.453,3.637,14.816,10.229
	c1.364,6.592-1.798,13.467-6.537,18.248c-1.553,1.566-3.318,2.988-5.386,3.752c-7.773,2.871-16.116-5.353-16.324-13.636
	C553.964,1604.095,559.211,1596.708,564.853,1590.639z"/>
<path style="fill:#EF8989;" d="M522.815,1639.56c7.421,1.152,13.22,6.927,17.806,12.872c1.144,1.482,2.282,3.067,2.609,4.91
	c0.476,2.676-0.866,5.384-2.701,7.389c-7.638,8.347-21.963,6.03-30.754-1.092l-2.106-11.922
	C506.699,1644.271,515.395,1638.409,522.815,1639.56z"/>
<path style="fill:#EF8989;" d="M472.317,1721.842l2.749,3.146c6.484-1.811,13.452,3.639,14.816,10.229
	c1.363,6.593-1.798,13.468-6.539,18.248c-1.553,1.566-3.318,2.988-5.386,3.752c-7.773,2.872-16.116-5.353-16.324-13.637
	C461.428,1735.297,466.676,1727.912,472.317,1721.842z"/>
<path style="fill:#EF8989;" d="M487.921,1949.872c-8.161,6.135-19.155,9.509-30.262,9.287l-11.631-1.3
	c-6.74-1.657-13.331-3.813-19.671-6.433c-5.227-2.16-10.516-4.821-13.569-9.036c-3.053-4.214-3.002-10.352,1.518-13.191
	c7.623-4.788,19.529,2.967,28.144-0.459c2.154-0.858,3.845-2.344,5.829-3.451c11.912-6.656,27.773,2.031,38.94,10.27
	c2.388,1.761,4.937,3.761,5.417,6.38C493.208,1945.056,490.634,1947.833,487.921,1949.872z"/>
<path style="fill:#EF8989;" d="M503.234,1881.901l-13.252,0.076c-8.054-7.961-10.883-22.738-1.771-32.478
	c2.19-2.339,5.167-4.292,8.141-4.306c2.049-0.009,3.826,0.892,5.49,1.82c6.673,3.722,13.18,8.765,14.592,16.427
	C517.844,1871.106,511.505,1881.488,503.234,1881.901z"/>
<path style="fill:#EF8989;" d="M547.83,1722.438c-7.559,3.144-8.536,15.594-16.557,17.236c-4.756,0.973-9.44-2.978-10.879-7.616
	c-1.436-4.637-0.408-9.659,0.964-14.317c1.665-5.651,3.826-11.156,6.45-16.431l5.714-8.089c6.228-7.065,15.117-11.725,24.47-12.827
	c3.11-0.368,6.697-0.169,8.732,2.211c1.708,1.999,1.757,4.884,1.718,7.515c-0.183,12.304-2.731,27.825-14.638,30.926
	C551.821,1721.562,549.721,1721.652,547.83,1722.438z"/>
<path style="fill:#EF8989;" d="M591.698,1822.583c-1.111,6.568-7.855,11.767-14.425,14.259c-6.57,2.492-13.481,3.208-20.001,5.892
	l-2.727-9.045c3.123-9.002,9.234-18.322,18.325-21.992C581.962,1808.028,593.243,1813.44,591.698,1822.583z"/>
<path style="fill:#EF8989;" d="M589.709,1580.906c1.445-5.906,0.982-12.134,2.24-18.082c1.257-5.949,5.026-12.094,11.005-13.195
	c8.322-1.531,15.251,8.533,13.303,16.768c-1.947,8.234-9.686,13.873-17.616,16.823L589.709,1580.906z"/>
<path style="fill:#EF8989;" d="M628.85,1806.865c-9.185,1.387-18.453-5.884-15.412-14.704c0.81-2.347,2.353-4.499,4.061-6.454
	c5.213-5.966,12.774-10.661,20.107-10.492c7.33,0.169,13.498,6.519,11.608,13.762l3.537,2.311
	C646.128,1798.463,638.036,1805.475,628.85,1806.865z"/>
<path style="fill:#EF8989;" d="M692.488,1797.636l-17.212,2.665c-5.461-5.325-1.993-16.102,4.853-21.952
	c6.847-5.85,15.746-8.051,24.17-10.014c2.412-0.562,5.084-1.092,6.964,0.073c1.393,0.864,2.041,2.504,2.376,4.144
	C715.874,1783.537,704.402,1797.143,692.488,1797.636z"/>
<path style="fill:#EF8989;" d="M740.772,1733.377c-3.34-8.428-6.085-19.483,1.317-26.982c5.073-5.139,13.396-5.975,18.761-2.839
	c5.366,3.138,7.969,9.457,8.087,15.962L740.772,1733.377z"/>
<path style="fill:#EF8989;" d="M848.502,1609.455l-0.585,3.722c-11.859,1.305-23.894,7.602-32.38,16.943
	c-5.005-1.128-7.046-7.016-5.611-12.241c1.437-5.225,5.471-9.773,9.733-13.627c8.334-7.537,18.162-13.447,28.488-17.134
	C852.369,1593.138,852.509,1602.004,848.502,1609.455z"/>
<path style="fill:#EF8989;" d="M959.351,1561.791l-5.924,2.957c-12.881,6.378-25.761,12.754-38.641,19.131
	c-5.78,2.86-12.154,5.818-17.872,4.628c-6.688-1.393-10.238-8.649-8.719-15.619c1.518-6.97,7.262-13.26,13.915-16.864
	c5.073-2.749,10.756-4.202,15.378-7.733c10.386-7.939,13.988-25.005,26.246-27.458c8.331-1.667,14.351,5.304,17.345,12.313
	c2.992,7.008,5.039,15.22,11.695,18.99C969.365,1556.556,964.539,1560.029,959.351,1561.791z"/>
<path style="fill:#EF8989;" d="M1050.362,1494.347c-0.99,0.803-2.139,1.463-3.335,1.662c-2.578,0.428-4.583-1.3-6.395-2.773
	c-8.465-6.883-20.139-10.13-32.155-8.945l-7.963-7.563c-7.33,1.97-11.994-6.884-8.989-13.842
	c3.006-6.958,10.321-11.583,17.255-15.11c4.785-2.433,9.661-4.639,14.603-6.605c2.369-0.944,5.067-1.832,7.097-0.853
	c3.366,1.622,2.357,6.622,2.541,10.477c0.43,9.037,9.038,14.024,15.302,19.867
	C1054.588,1476.503,1058.21,1487.985,1050.362,1494.347z"/>
<path style="fill:#EF8989;" d="M1155.637,1470.347l-4.871,9.843c4.051,6.419-3.029,13.493-10.564,12.68
	c-7.534-0.813-14.115-6.434-19.536-12.015c-3.741-3.851-7.289-7.857-10.629-11.996c-1.602-1.984-3.248-4.299-2.913-6.528
	c0.553-3.693,5.629-4.209,9.257-5.524c8.505-3.084,10.724-12.782,14.453-20.493c3.727-7.712,13.625-14.566,22.023-8.951
	c1.061,0.709,2.03,1.611,2.574,2.694c1.172,2.337,0.113,4.761-0.759,6.929C1150.6,1447.107,1150.951,1459.219,1155.637,1470.347z"/>
<path style="fill:#EF8989;" d="M1228.53,1586.769c-7.108,0.612-14.814-3.016-20.225-8.306c-4.125-4.033-7.195-9.032-11.935-12.402
	c-10.654-7.574-28.022-5.968-33.992-16.953c-4.056-7.465,0.824-15.277,6.633-20.208c5.809-4.932,13.049-9.315,14.682-16.79
	c5.231,1.948,9.976,5.531,13.195,9.967l4.575,4.784c9.901,10.418,19.802,20.837,29.703,31.256c4.442,4.675,9.152,9.889,9.706,15.704
	C1241.519,1580.622,1235.636,1586.159,1228.53,1586.769z"/>
<path style="fill:#EF8989;" d="M1304.487,1605.829c-9.665-5.733-18.218-13.374-24.793-22.148c4.502-5.813,12.93-8.569,21.234-6.944
	l3.729-0.542c4.753,10.943,14.326,20.579,25.76,25.922c0.403,5.115-4.617,8.806-10.036,8.98
	C1314.966,1611.27,1309.427,1608.761,1304.487,1605.829z"/>
<path style="fill:#EF8989;" d="M1330.706,1678.914c-6.41-3.326-9.67-11.03-8.261-17.083c1.41-6.052,6.679-10.409,12.856-12.444
	l21.569,22.805C1349.807,1677.875,1340.059,1683.767,1330.706,1678.914z"/>
<path style="fill:#EF8989;" d="M1401.052,1696.697c-1.251-2.138-2.548-4.535-1.99-6.674c0.413-1.586,1.787-2.69,3.256-3.495
	c9.833-5.384,26.221,1.551,30.217,12.787l7.636,15.654c-3.472,6.793-14.793,6.666-22.406,1.856
	C1410.152,1712.014,1405.418,1704.162,1401.052,1696.697z"/>
<path style="fill:#EF8989;" d="M1450.68,1776.448c-2.483-0.08-4.994-0.919-7.367-1.972c-7.241-3.215-13.962-9.05-15.968-16.104
	c-2.008-7.053,2.235-14.822,9.714-15.158l1.161-4.063c8.814,4.207,17.905,9.862,21.949,18.227
	C1464.21,1765.741,1460.005,1776.744,1450.68,1776.448z"/>
<path style="fill:#EF8989;" d="M1507.767,1820.426c-9.523-0.321-20.234-3.402-26.426-11.002c-6.193-7.6-4.361-19.977,4.829-21.204
	c6.604-0.882,13.564,4.023,17.888,9.563c4.324,5.54,7.051,11.929,11.542,17.364L1507.767,1820.426z"/>
<path style="fill:#EF8989;" d="M1542.486,1879.117c-2.883-1.4-5.629-3.666-6.52-6.503c-0.615-1.955-0.28-3.918,0.115-5.783
	c1.582-7.475,4.475-15.182,11.378-18.797c6.904-3.614,18.696-0.628,21.536,7.15l3.991,12.637
	C1567.764,1877.87,1554.485,1884.943,1542.486,1879.117z"/>
<path style="fill:#EF8989;" d="M1694.475,1846.582c3.123-0.541,5.874,2.061,7.886,4.793c6.055,8.221,9.319,19.248,8.986,30.352
	l-1.414,11.617c-1.725,6.723-3.945,13.292-6.63,19.606c-2.211,5.204-4.924,10.468-9.168,13.479
	c-4.245,3.011-10.381,2.899-13.177-1.649c-4.712-7.668,3.161-19.498-0.179-28.146c-0.837-2.163-2.306-3.869-3.394-5.862
	c-6.538-11.978,2.306-27.752,10.656-38.837C1689.828,1849.567,1691.852,1847.038,1694.475,1846.582z"/>
<path style="fill:#EF8989;" d="M1656.115,1665.21c6.559,1.175,11.691,7.97,14.117,14.565c2.428,6.594,3.074,13.513,5.693,20.058
	l-9.072,2.637c-8.97-3.212-18.229-9.414-21.808-18.542C1641.466,1674.802,1646.989,1663.574,1656.115,1665.21z"/>
<path style="fill:#EF8989;" d="M1643.421,1755.371c3.788-6.636,8.896-13.092,16.573-14.428c7.679-1.335,17.996,5.106,18.328,13.381
	l-0.055,13.253c-8.041,7.974-22.845,10.658-32.493,1.449c-2.318-2.212-4.241-5.209-4.226-8.183
	C1641.558,1758.793,1642.477,1757.025,1643.421,1755.371z"/>
<path style="fill:#EF8989;" d="M1624.991,1854.617c0.977-2.801,2.133-5.828,4.492-7.061c2.809-1.468,6.223,0.169,8.973,2.158
	c8.274,5.981,14.748,15.486,17.82,26.162l2.198,11.495c0.41,6.929,0.299,13.862-0.33,20.694c-0.516,5.631-1.495,11.471-4.618,15.635
	c-3.123,4.162-9.001,5.928-13.051,2.451c-6.827-5.865-2.94-19.534-8.76-26.749c-1.457-1.804-3.376-2.98-5.021-4.547
	C1616.814,1885.441,1620.422,1867.72,1624.991,1854.617z"/>
<path style="fill:#EF8989;" d="M1576.612,1590.451c0.878-1.385,2.524-2.016,4.168-2.334c11.007-2.126,24.497,9.479,24.873,21.399
	l2.495,17.236c-5.38,5.41-16.122,1.834-21.903-5.069c-5.782-6.904-7.893-15.826-9.773-24.268
	C1575.932,1594.997,1575.429,1592.318,1576.612,1590.451z"/>
<path style="fill:#EF8989;" d="M1574.919,1686.013l2.346-3.515c7.109,6.696,14.041,14.856,15.34,24.055
	c1.296,9.199-6.066,18.394-14.856,15.265c-2.339-0.832-4.475-2.398-6.413-4.125c-5.915-5.27-10.535-12.879-10.292-20.209
	C1561.284,1690.156,1567.694,1684.052,1574.919,1686.013z"/>
<path style="fill:#EF8989;" d="M1513.424,1486.308l3.716,0.621c1.186,11.872,7.364,23.969,16.621,32.546
	c-1.176,4.994-7.085,6.977-12.296,5.49c-5.21-1.488-9.719-5.568-13.53-9.867c-7.454-8.409-13.267-18.295-16.852-28.657
	C1497.146,1482.28,1506.014,1482.227,1513.424,1486.308z"/>
<path style="fill:#EF8989;" d="M1528.188,1590.408c-8.46,3.256-19.542,5.891-26.967-1.583c-5.089-5.124-5.843-13.454-2.653-18.789
	c3.19-5.334,9.535-7.874,16.04-7.928L1528.188,1590.408z"/>
<path style="fill:#EF8989;" d="M1464.183,1174.622l-21.328,2.395c4.322-1.405,6.37,6.457,2.679,9.105
	c-3.692,2.648-8.792,1.295-13.083-0.199c-5.172-1.803-10.994-4.339-12.535-9.596c-2.224-7.589,6.062-14.053,13.587-16.484
	c13.236-4.276,31.447-1.535,35.5,11.772C1467.396,1172.618,1465.79,1173.62,1464.183,1174.622z"/>
<path style="fill:#EF8989;" d="M1435.569,1345.333l-7.642,7.888c1.897,7.348-7.003,11.924-13.929,8.851
	c-6.928-3.074-11.48-10.436-14.938-17.404c-2.386-4.809-4.543-9.707-6.46-14.667c-0.919-2.379-1.782-5.085-0.783-7.106
	c1.654-3.349,6.646-2.29,10.502-2.436c9.04-0.341,14.114-8.899,20.019-15.105c5.902-6.206,17.42-9.714,23.704-1.804
	c0.793,0.999,1.442,2.155,1.628,3.352c0.402,2.583-1.345,4.569-2.837,6.367C1437.865,1321.666,1434.502,1333.307,1435.569,1345.333z
	"/>
<path style="fill:#EF8989;" d="M1397.739,1254.392c-2.424,0.018-4.932,0.02-7.151-0.955c-5.869-2.578-6.715-11.679-2.155-16.184
	c4.562-4.505,12.442-4.328,17.714-0.682l13.706,0.874c1.909,5.378,2.976,11.053,3.153,16.756
	C1414.583,1254.265,1406.162,1254.328,1397.739,1254.392z"/>
<path style="fill:#EF8989;" d="M1398.393,1394.33c7.038-2.923,15.269-4.888,19.106-11.507c4.387,3.451,7.811,8.311,9.523,13.518
	l2.898,5.952c6.25,12.943,12.498,25.886,18.747,38.83c2.804,5.807,5.698,12.21,4.451,17.917c-1.459,6.673-8.749,10.151-15.704,8.563
	c-6.955-1.587-13.188-7.393-16.726-14.082c-2.698-5.1-4.094-10.797-7.579-15.453c-7.836-10.464-24.865-14.235-27.198-26.517
	C1384.325,1403.204,1391.355,1397.254,1398.393,1394.33z"/>
<path style="fill:#EF8989;" d="M1470.369,1107.507c-4.109,0.201-8.01-1.709-11.557-3.794c-7.005-4.115-14.101-10.186-14.519-18.299
	c-0.417-8.095,6.709-15.329,14.707-16.649c7.996-1.322,16.215,2.329,22.056,7.95l6.967,11.59
	C1484.759,1096.944,1479.594,1107.055,1470.369,1107.507z"/>
<path style="fill:#EF8989;" d="M1510.018,1157.573c-2.51,2.757-6.263,5.765-9.53,3.967c-1.839-1.011-2.637-3.187-3.29-5.181
	c-3.044-9.302-4.578-22.332,4.386-26.263c7.387-3.239,15.234,3.065,20.846,8.86l0.233,4.716L1510.018,1157.573z"/>
<path style="fill:#EF8989;" d="M1426.795,1059.272c-53.202,28.735-171.377,79.63-169.738,144.061
	c1.416,55.616,46.624,98.122,81.375,141.567c34.268,42.84,51.957,118.285,56.157,173.591l201.662,269.317l-8.848,6.626
	l-195.095-260.55c-5.396,7.624-17.769,6.737-27.204,4.042c-52.532-15.003-100.637-64.222-137.011-104.985
	c-18.19-20.386-70.861-53.554-92.198-70.617c-24.137-19.302-43.501-51.056-74.398-50.315c-30.898-0.741-45.143,31.013-69.282,50.315
	c-21.338,17.063-85.378,65.025-103.568,85.41c-36.374,40.763-84.478,89.982-137.012,104.986c-2.577,0.736-5.383,1.335-8.207,1.677
	c-66.146,86.264-122.528,160.208-125.652,165.629l-3.289-1.895l-6.84-2.446c1.198-3.35,56.347-75.851,122.718-162.455
	c-2.935-1.144-5.426-2.986-6.957-5.98c-1.796-3.512-1.73-7.655-1.454-11.59c3.872-55.5,31.241-143.853,65.994-187.298
	c34.751-43.446,76.573-89.413,77.989-145.029c1.641-64.432-113.491-115.326-169.736-144.061
	c-49.225-25.149-110.106-52.853-120.055-81.42c-107.696-39.313-194.662-71.518-197.418-73.994l3.693-4.11l2.924-4.672
	c5.56,2.997,90.692,34.415,189.829,70.621c0.336-1.697,0.818-3.396,1.584-5.096c12.407-27.569,78.073-12.976,105.595-6.924
	c164.94,36.266,227.898,54.494,271.023,3.462c27.794-32.891,21.53-90.017,35.379-167.915
	c13.183-74.149,25.75-159.215,66.383-167.239V384.148h11.05v237.516c41.975,5.976,54.693,92.394,68.056,167.56
	c13.848,77.898,7.585,135.024,35.379,167.915c43.124,51.031,106.082,32.804,271.021-3.462
	c27.522-6.051,105.69-11.189,105.978,19.042c0.008,0.709-0.05,1.394-0.081,2.088c90.71-26.825,201.328-59.867,276.051-82.276
	l3.177,10.582c-10.271,3.081-161.047,48.283-282.066,84.05C1530.86,1016.782,1477.535,1031.866,1426.795,1059.272z"/>
<path style="fill:#EF8989;" d="M1595.613,1105.526c-4,1.25-8.318,0.351-12.412-0.553c-6.584-1.456-14.654-4.578-14.914-11.317
	c-0.178-4.632,3.663-8.311,7.192-11.317c6.352-5.412,13.167-11.044,21.42-12.284c8.253-1.241,18.057,3.989,18.477,12.324
	l-13.569,13.661C1603.015,1100.055,1599.614,1104.277,1595.613,1105.526z"/>
<path style="fill:#EF8989;" d="M1688.587,1035.817c-3.364,3.673-6.853,7.442-11.373,9.536c-4.521,2.093-10.383,2.112-14.019-1.294
	l-9.273-2.079c-4.541-3.232-9.213-6.602-12.061-11.394c-2.846-4.791-3.379-11.427,0.263-15.645
	c8.524-9.873,26.099,2.985,37.434-3.466c2.394-1.362,4.343-3.54,6.965-4.379c6.286-2.011,12.345,5.324,11.779,11.9
	C1697.735,1025.572,1693.044,1030.95,1688.587,1035.817z"/>
<path style="fill:#EF8989;" d="M1746.361,992.674c-1.273,4.816-2.614,9.773-5.644,13.726c-3.032,3.954-8.216,6.692-13.017,5.363
	l-9.178,2.465c-5.521-0.753-11.225-1.568-15.972-4.49c-4.747-2.921-8.298-8.551-7.032-13.978
	c2.966-12.702,24.502-9.474,31.545-20.452c1.487-2.317,2.202-5.151,4.134-7.112c4.634-4.7,13.405-1.017,15.957,5.07
	C1749.705,979.352,1748.049,986.294,1746.361,992.674z"/>
<path style="fill:#EF8989;" d="M1838.778,960.81l-6.135,5.89c-3.155,8.549-10.315,15.523-18.945,18.451
	c-1.186,0.404-2.458,0.736-3.682,0.466c-3.737-0.825-4.113-5.841-4.951-9.573c-1.756-7.834-9.802-13.729-17.802-13.043
	c-1.296,0.112-2.693,0.354-3.83-0.281c-2.134-1.195-1.754-4.33-1.082-6.682c1.617-5.65,3.235-11.302,4.852-16.952
	c1.825-6.373,6.11-14.306,12.555-12.759c4.623,1.111,6.878,6.801,11.399,8.273c2.641,0.86,5.493,0.098,8.263-0.081
	C1832.329,933.688,1843.404,948.73,1838.778,960.81z"/>
<path style="fill:#EF8989;" d="M1863.842,848.226c-2.521-7.622-11.109-12.694-19.003-11.222c-1.28,0.239-2.645,0.618-3.838,0.097
	c-2.241-0.978-2.173-4.136-1.736-6.543c1.053-5.782,2.105-11.566,3.156-17.348c1.187-6.522,4.669-14.839,11.236-13.935
	c4.709,0.649,7.514,6.089,12.158,7.108c2.713,0.595,5.477-0.445,8.215-0.896c12.764-2.099,25.268,11.777,21.856,24.255l-5.525,6.466
	c-2.296,8.819-8.733,16.464-17.032,20.231c-1.141,0.518-2.374,0.974-3.619,0.827
	C1865.914,856.813,1865.043,851.858,1863.842,848.226z"/>
<path style="fill:#EF8989;" d="M1900.241,938.016c-4,1.25-8.319,0.352-12.412-0.553c-6.585-1.456-14.654-4.576-14.914-11.316
	c-0.178-4.632,3.662-8.31,7.19-11.317c6.353-5.413,13.168-11.044,21.421-12.284c8.253-1.241,18.057,3.989,18.477,12.323
	l-13.569,13.661C1907.643,932.545,1904.243,936.768,1900.241,938.016z"/>
<path style="fill:#EF8989;" d="M1931.244,826.612c-4.186,0.199-8.138-1.761-11.87-3.67c-6.003-3.072-13.023-8.13-11.571-14.716
	c0.997-4.528,5.642-7.116,9.815-9.134c7.514-3.631,15.531-7.359,23.829-6.475c8.3,0.884,16.465,8.422,14.767,16.591l-16.58,9.791
	C1939.788,823.188,1935.431,826.415,1931.244,826.612z"/>
<path style="fill:#EF8989;" d="M1969.026,903.263c-4.11,0.201-8.01-1.709-11.557-3.793c-7.006-4.116-14.103-10.187-14.519-18.3
	c-0.417-8.095,6.709-15.328,14.705-16.649c7.996-1.322,16.216,2.33,22.056,7.95l6.968,11.59
	C1983.416,892.701,1978.251,902.811,1969.026,903.263z"/>
<path style="fill:#EF8989;" d="M2006.631,846.706c-4.027-0.844-7.318-3.677-10.223-6.59c-5.738-5.751-11.072-13.418-9.426-21.374
	c1.642-7.937,10.363-13.136,18.433-12.395c8.072,0.742,15.102,6.351,19.334,13.263l3.814,12.974
	C2023.223,840.12,2015.671,848.598,2006.631,846.706z"/>
<path style="fill:#E7727E;" d="M1390.381,1019.889c7.177-1.303,73.379-20.605,156.158-45.083c0.032-0.694,0.089-1.378,0.081-2.088
	c-0.288-30.231-78.455-25.093-105.978-19.042c-164.939,36.266-227.897,54.494-271.021,3.462
	c-27.794-32.891-21.531-90.017-35.379-167.915c-13.363-75.165-26.081-161.584-68.056-167.56v250.384h-11.05V621.985
	c-40.632,8.024-53.2,93.09-66.383,167.239c-13.849,77.898-7.584,135.024-35.379,167.915
	c-43.125,51.031-106.083,32.804-271.023-3.462c-27.522-6.051-93.189-20.645-105.595,6.924c-0.765,1.7-1.247,3.399-1.584,5.096
	c63.556,23.212,132.872,48.392,190.667,69.313l-3.761,10.388c-61.216-22.158-126.706-45.926-185.933-67.545
	c9.949,28.567,70.83,56.271,120.055,81.42c56.246,28.735,171.377,79.63,169.736,144.061
	c-1.415,55.616-43.238,101.583-77.989,145.029c-34.753,43.446-62.122,131.798-65.994,187.298c-0.275,3.934-0.341,8.078,1.454,11.59
	c1.531,2.994,4.022,4.837,6.957,5.98c65.795-85.854,142.621-185.568,188.862-245.53l8.75,6.748
	c-42.13,54.628-118.246,153.477-184.55,239.948c2.824-0.342,5.63-0.941,8.207-1.677c52.533-15.004,100.638-64.223,137.012-104.986
	c18.19-20.386,82.23-68.348,103.568-85.41c24.139-19.302,38.385-51.056,69.282-50.315c30.897-0.741,50.261,31.013,74.398,50.315
	c21.337,17.063,74.008,50.231,92.198,70.617c36.374,40.763,84.479,89.983,137.011,104.985c9.435,2.694,21.808,3.582,27.204-4.042
	l-117.037-156.302l8.847-6.621l110.469,147.531c-4.2-55.306-21.889-130.751-56.157-173.591
	c-34.752-43.445-79.959-85.95-81.375-141.567c-1.639-64.432,116.536-115.326,169.738-144.061
	c50.74-27.406,104.066-42.49,116.905-72.11c-78.057,23.07-143.738,42.215-151.341,43.597L1390.381,1019.889z"/>
<path style="fill:#E7727E;" d="M922.132,1111.329c-7.401,0-13.399-17.844-13.399-39.855c0-22.011,5.999-39.854,13.399-39.854
	c7.399,0,13.398,17.843,13.398,39.854C935.53,1093.484,929.531,1111.329,922.132,1111.329z"/>
<path style="fill:#E7727E;" d="M1074.367,1239.377c-38.592,0-69.988-31.396-69.988-69.985h11.05
	c0,32.497,26.441,58.935,58.938,58.935s58.933-26.438,58.933-58.935h11.05C1144.349,1207.982,1112.954,1239.377,1074.367,1239.377z"
	/>
<path style="fill:#E7727E;" d="M1226.598,1111.329c-7.401,0-13.4-17.844-13.4-39.855c0-22.011,5.999-39.854,13.4-39.854
	c7.399,0,13.398,17.843,13.398,39.854C1239.996,1093.484,1233.997,1111.329,1226.598,1111.329z"/>
<path style="fill:#CD5961;" d="M1023.354,221.088c12.771,1.041,23.871,12.453,24.559,25.248c0.112,2.074,0.037,4.336,1.294,5.99
	c2.362,3.109,7.234,1.814,10.802,0.229c8.574-3.81,17.147-7.619,25.721-11.427c9.669-4.296,21.258-12.828,17.382-22.673
	c-2.779-7.061-12.273-9.363-15.601-16.184c-1.944-3.982-1.372-8.66-1.704-13.079c-1.548-20.587-27.779-34.758-45.848-24.769
	l-7.95,11.003c-12.812,6.882-22.247,19.745-24.966,34.033c-0.374,1.966-0.617,4.05,0.081,5.924
	C1009.256,221.107,1017.268,220.592,1023.354,221.088z"/>
<path style="fill:#CD5961;" d="M972.268,309.157c8.002,0.652,14.956,7.802,15.387,15.819c0.071,1.3,0.023,2.717,0.811,3.752
	c1.48,1.948,4.533,1.136,6.768,0.144c5.371-2.387,10.743-4.773,16.114-7.16c6.059-2.692,13.321-8.036,10.892-14.205
	c-1.742-4.424-7.689-5.867-9.774-10.14c-1.218-2.495-0.859-5.427-1.067-8.195c-0.97-12.899-17.404-21.777-28.726-15.519
	l-4.981,6.894c-8.028,4.312-13.939,12.371-15.642,21.323c-0.235,1.232-0.388,2.537,0.049,3.713
	C963.435,309.168,968.454,308.845,972.268,309.157z"/>
<path style="fill:#CD5961;" d="M1122.631,276.938c8.001,0.652,14.956,7.803,15.387,15.818c0.07,1.301,0.023,2.717,0.811,3.754
	c1.48,1.948,4.532,1.137,6.767,0.143c5.372-2.386,10.743-4.773,16.115-7.16c6.059-2.691,13.319-8.036,10.891-14.205
	c-1.741-4.424-7.69-5.867-9.774-10.139c-1.218-2.495-0.859-5.427-1.067-8.195c-0.971-12.899-17.404-21.778-28.726-15.519
	l-4.981,6.895c-8.028,4.312-13.94,12.369-15.642,21.323c-0.235,1.231-0.388,2.536,0.05,3.711
	C1113.797,276.95,1118.817,276.627,1122.631,276.938z"/>
<path style="fill:#CD5961;" d="M1160.832,333.674c-1.206-6.488-10.536-8.35-16.058-4.736c-5.522,3.614-8.038,10.293-10.213,16.523
	c-1.642,4.703-3.308,9.56-3.01,14.533c0.297,4.974,3.057,10.145,7.779,11.732l6.223,7.182c4.996,2.468,10.178,4.987,15.747,5.226
	c5.569,0.237,11.665-2.437,13.654-7.643c4.658-12.184-14.991-21.57-14.678-34.61C1160.34,339.13,1161.335,336.381,1160.832,333.674z
	"/>
<path style="fill:#CD5961;" d="M1165.163,454.274c-4.106,0.838-6.214,5.833-5.418,9.948c0.794,4.115,3.63,7.493,6.365,10.669
	c4.402,5.11,10.972,10.739,17.031,7.775c4.163-2.038,5.584-7.163,6.561-11.693c1.758-8.159,3.489-16.828,0.672-24.685
	c-2.816-7.855-12.067-14.013-19.606-10.436L1165.163,454.274z"/>
<path style="fill:#CD5961;" d="M1174.789,571.603c1.77,3.714,5.3,6.244,8.815,8.38c6.943,4.221,15.651,7.594,22.994,4.12
	c7.326-3.468,10.321-13.169,7.697-20.838c-2.625-7.669-9.733-13.177-17.45-15.659l-13.506-0.647
	C1177.275,553.926,1170.817,563.264,1174.789,571.603z"/>
<path style="fill:#CD5961;" d="M1202.625,621.241c-0.122,1.889-0.244,3.778-0.366,5.668l7.993,19.918
	c-0.809-4.472-8.704-2.552-9.286,1.954c-0.584,4.506,3.023,8.357,6.371,11.427c4.038,3.702,9.029,7.627,14.388,6.494
	c7.738-1.635,9.506-11.995,8.083-19.774C1227.304,633.245,1216.264,618.505,1202.625,621.241z"/>
<path style="fill:#CD5961;" d="M1221.38,728.732l-7.262-11.658c-5.64,0.867-11.144,2.615-16.25,5.162
	c3.933,7.448,7.866,14.895,11.799,22.342c1.131,2.143,2.319,4.353,4.229,5.846c5.05,3.947,13.466,0.382,15.272-5.768
	C1230.976,738.505,1227.089,731.647,1221.38,728.732z"/>
<path style="fill:#CD5961;" d="M1252.786,859.883c-0.276,3.247-1.242,6.611-0.145,9.678c2.32,6.481,11.474,6.878,16.543,11.537
	c1.245,1.144,2.313,2.604,3.907,3.17c2.559,0.905,5.233-0.841,7.367-2.518c7.413-5.829,15.38-12.302,24.81-12.433
	c4.711-0.064,9.328,1.506,14.04,1.485c4.714-0.023,10.052-2.416,10.988-7.036c0.655-3.237-1.064-6.469-3.038-9.117
	c-9.166-12.281-24.189-18.336-37.894-25.194c-13.704-6.855-27.841-16.437-31.743-31.257l-4.442,19.656
	c-5.501,4.839-5.77,13.34-4.232,20.501C1250.485,845.517,1253.409,852.584,1252.786,859.883z"/>
<path style="fill:#CD5961;" d="M1151.234,514.539l-4.263,2.029l-6.253,17.72c-1.24,3.516-2.111,8.247,1.019,10.273
	c1.762,1.14,4.056,0.812,6.121,0.442c9.635-1.725,21.838-6.546,21.053-16.302C1168.263,520.661,1158.995,516.737,1151.234,514.539z"
	/>
<path style="fill:#CD5961;" d="M1890.363,836.207l5.525-6.466c3.412-12.478-9.092-26.354-21.856-24.255
	c-2.739,0.451-5.503,1.491-8.215,0.896c-4.644-1.019-7.449-6.459-12.158-7.108c-6.568-0.904-10.049,7.414-11.236,13.935
	c-1.051,5.783-2.103,11.566-3.156,17.348c-0.437,2.407-0.505,5.565,1.736,6.543c1.193,0.521,2.558,0.142,3.838-0.097
	c7.893-1.472,16.481,3.6,19.003,11.222c1.201,3.633,2.072,8.587,5.871,9.039c1.245,0.148,2.478-0.308,3.619-0.827
	C1881.63,852.672,1888.067,845.026,1890.363,836.207z"/>
<path style="fill:#CD5961;" d="M1701.906,890.355l8.447,4.353c2.657,4.214,8.334,5.677,13.237,4.793
	c4.903-0.884,9.229-3.648,13.411-6.353c5.542-3.584,11.44-7.603,13.649-13.823c2.208-6.22-1.8-14.847-8.391-14.489
	c-2.749,0.15-5.185,1.765-7.845,2.478c-12.597,3.379-26.353-13.501-37.095-6.101c-4.589,3.161-5.75,9.717-4.206,15.071
	C1694.658,881.64,1698.329,886.082,1701.906,890.355z"/>
<path style="fill:#CD5961;" d="M1760.217,847.173l9.503-0.067c4.31,2.498,10.017,1.158,13.949-1.901
	c3.931-3.059,6.48-7.516,8.928-11.855c3.245-5.747,6.602-12.045,5.67-18.579c-0.932-6.534-8.488-12.314-14.16-8.936
	c-2.364,1.409-3.772,3.971-5.796,5.837c-9.587,8.842-29.609,0.279-35.687,11.821c-2.597,4.931-0.582,11.275,3.273,15.301
	C1749.752,842.82,1755.065,845.049,1760.217,847.173z"/>
<path style="fill:#CD5961;" d="M1603.784,893.017c3.731,1.909,7.682,3.868,11.868,3.669c4.188-0.198,8.544-3.424,8.39-7.613
	l16.58-9.791c1.699-8.17-6.467-15.708-14.765-16.591c-8.3-0.885-16.317,2.843-23.83,6.475c-4.173,2.018-8.818,4.606-9.816,9.134
	C1590.76,884.887,1597.779,889.945,1603.784,893.017z"/>
<path style="fill:#CD5961;" d="M1941.447,792.617c-8.298-0.884-16.315,2.844-23.829,6.475c-4.173,2.018-8.818,4.606-9.815,9.134
	c-1.452,6.586,5.568,11.644,11.571,14.716c3.732,1.909,7.684,3.869,11.87,3.67c4.187-0.197,8.544-3.424,8.39-7.613l16.58-9.791
	C1957.912,801.038,1949.747,793.501,1941.447,792.617z"/>
<path style="fill:#CD5961;" d="M1507.752,907.395c9.04,1.893,16.591-6.584,21.932-14.12l-3.814-12.973
	c-4.232-6.914-11.262-12.523-19.333-13.264c-8.071-0.742-16.792,4.457-18.433,12.395c-1.646,7.956,3.687,15.622,9.426,21.373
	C1500.434,903.718,1503.725,906.552,1507.752,907.395z"/>
<path style="fill:#CD5961;" d="M2005.415,806.347c-8.071-0.741-16.792,4.458-18.433,12.395c-1.645,7.956,3.688,15.623,9.426,21.374
	c2.905,2.912,6.196,5.745,10.223,6.59c9.04,1.893,16.592-6.586,21.932-14.122l-3.814-12.974
	C2020.517,812.698,2013.487,807.089,2005.415,806.347z"/>
<path style="fill:#CD5961;" d="M1413.972,896.664c3.773,2.53,8.367,5.127,12.608,3.497c4.24-1.629,4.244-9.755-0.291-9.486
	l21.24,3.069l5.423-1.692c-0.559-13.899-17.487-21.151-31.375-20.357c-7.894,0.451-17.546,4.613-17.309,12.518
	C1404.429,889.69,1409.421,893.614,1413.972,896.664z"/>
<path style="fill:#CD5961;" d="M1324.754,911.571c1.9,1.504,4.328,2.136,6.677,2.73c8.166,2.066,16.33,4.131,24.496,6.197
	c1.27-5.562,1.67-11.324,1.182-17.009l-13.041-4.307c-4.179-4.86-11.761-7.021-17.312-3.814
	C1321.205,898.575,1319.726,907.594,1324.754,911.571z"/>
<path style="fill:#CD5961;" d="M1541.827,933.136c2.708,2.564,7.1,0.602,10.224-1.432l15.745-10.256l0.966-4.622
	c-3.966-7.024-9.966-15.105-17.932-13.837c-9.666,1.538-11.474,14.534-10.877,24.303
	C1540.082,929.386,1540.305,931.693,1541.827,933.136z"/>
<path style="fill:#CD5961;" d="M1819.421,934.518c-2.77,0.179-5.623,0.941-8.263,0.081c-4.52-1.472-6.776-7.162-11.399-8.273
	c-6.446-1.547-10.73,6.386-12.555,12.759c-1.617,5.651-3.235,11.302-4.852,16.952c-0.672,2.352-1.053,5.487,1.082,6.682
	c1.136,0.636,2.533,0.394,3.83,0.281c8-0.686,16.046,5.209,17.802,13.043c0.838,3.733,1.214,8.749,4.951,9.573
	c1.224,0.269,2.496-0.063,3.682-0.466c8.63-2.928,15.789-9.902,18.945-18.451l6.135-5.89
	C1843.404,948.73,1832.329,933.688,1819.421,934.518z"/>
<path style="fill:#CD5961;" d="M1686.523,1007.096c-2.621,0.839-4.571,3.017-6.965,4.379c-11.335,6.452-28.91-6.407-37.434,3.466
	c-3.641,4.218-3.109,10.854-0.263,15.645c2.848,4.792,7.52,8.162,12.061,11.394l9.273,2.079c3.636,3.406,9.497,3.387,14.019,1.294
	c4.52-2.094,8.009-5.862,11.373-9.536c4.457-4.867,9.147-10.245,9.714-16.821C1698.868,1012.42,1692.809,1005.085,1686.523,1007.096
	z"/>
<path style="fill:#CD5961;" d="M1731.197,968.195c-1.932,1.961-2.647,4.795-4.134,7.112c-7.043,10.978-28.579,7.75-31.545,20.452
	c-1.267,5.427,2.285,11.057,7.032,13.978c4.747,2.922,10.451,3.737,15.972,4.49l9.178-2.465c4.801,1.329,9.985-1.409,13.017-5.363
	c3.03-3.953,4.371-8.91,5.644-13.726c1.688-6.38,3.345-13.322,0.793-19.409C1744.602,967.178,1735.831,963.495,1731.197,968.195z"/>
<path style="fill:#CD5961;" d="M1596.899,1070.056c-8.253,1.24-15.068,6.872-21.42,12.284c-3.529,3.006-7.369,6.684-7.192,11.317
	c0.259,6.739,8.329,9.861,14.914,11.317c4.094,0.904,8.411,1.802,12.412,0.553c4.001-1.249,7.402-5.472,6.195-9.485l13.569-13.661
	C1614.957,1074.045,1605.153,1068.815,1596.899,1070.056z"/>
<path style="fill:#CD5961;" d="M1901.528,902.546c-8.253,1.24-15.068,6.872-21.421,12.284c-3.528,3.006-7.368,6.685-7.19,11.317
	c0.259,6.74,8.329,9.86,14.914,11.316c4.093,0.905,8.411,1.803,12.412,0.553c4.001-1.248,7.402-5.471,6.195-9.485l13.569-13.661
	C1919.585,906.536,1909.781,901.305,1901.528,902.546z"/>
<path style="fill:#CD5961;" d="M1459,1068.765c-7.997,1.321-15.123,8.554-14.707,16.649c0.418,8.113,7.514,14.183,14.519,18.299
	c3.547,2.085,7.447,3.995,11.557,3.794c9.225-0.452,14.391-10.563,17.654-19.202l-6.967-11.59
	C1475.215,1071.094,1466.996,1067.443,1459,1068.765z"/>
<path style="fill:#CD5961;" d="M1957.655,864.521c-7.996,1.321-15.122,8.554-14.705,16.649c0.417,8.113,7.513,14.183,14.519,18.3
	c3.547,2.084,7.447,3.994,11.557,3.793c9.225-0.452,14.39-10.562,17.654-19.202l-6.968-11.59
	C1973.871,866.851,1965.652,863.2,1957.655,864.521z"/>
<path style="fill:#CD5961;" d="M1433.504,1159.843c-7.525,2.431-15.811,8.895-13.587,16.484c1.541,5.257,7.363,7.793,12.535,9.596
	c4.291,1.493,9.391,2.847,13.083,0.199c3.692-2.648,1.643-10.51-2.679-9.105l21.328-2.395c1.607-1.002,3.213-2.004,4.82-3.007
	C1464.951,1158.308,1446.74,1155.567,1433.504,1159.843z"/>
<path style="fill:#CD5961;" d="M1406.147,1236.571c-5.271-3.646-13.152-3.823-17.714,0.682c-4.561,4.505-3.714,13.606,2.155,16.184
	c2.219,0.975,4.727,0.973,7.151,0.955c8.423-0.064,16.844-0.127,25.267-0.191c-0.177-5.703-1.244-11.378-3.153-16.756
	L1406.147,1236.571z"/>
<path style="fill:#CD5961;" d="M1501.584,1130.097c-8.964,3.93-7.43,16.961-4.386,26.263c0.653,1.994,1.45,4.169,3.29,5.181
	c3.267,1.798,7.021-1.21,9.53-3.967l12.644-13.901l-0.233-4.716C1516.818,1133.161,1508.971,1126.858,1501.584,1130.097z"/>
<path style="fill:#CD5961;" d="M960.513,535.276c-4.916,6.671-4.849,15.731-3.704,23.938l4.055-1.003
	c4.275,5.2,13.11,4.728,18.005,0.108c4.895-4.621,6.243-12.067,5.099-18.701c-0.375-2.174-1.006-4.349-2.263-6.161
	C976.979,526.648,965.429,528.607,960.513,535.276z"/>
<path style="fill:#CD5961;" d="M963.063,410.186c2.337,2.083,5.392,3.976,8.422,3.192c2.546-0.659,4.24-2.996,5.715-5.174
	c6.902-10.189,13.708-24.367,5.726-33.734c-1.328-1.559-2.999-2.836-4.097-4.564c-4.393-6.907,1.941-17.671-3.691-23.613
	c-3.341-3.523-9.443-2.97-13.279,0.007c-3.836,2.976-5.871,7.682-7.415,12.285c-1.875,5.585-3.258,11.335-4.13,17.162l0.046,9.904
	C951.416,395.009,956.03,403.923,963.063,410.186z"/>
<path style="fill:#CD5961;" d="M948.822,468.749c6.741,3.308,14.801,1.899,21.968-0.344c1.787-0.559,3.628-1.207,4.952-2.529
	c1.924-1.92,2.376-4.909,2.021-7.603c-1.475-11.217-14.542-17.528-25.827-16.729l-8.558,8.563
	C938.314,455.651,942.081,465.439,948.822,468.749z"/>
<path style="fill:#CD5961;" d="M945.483,536.996c3.122-7.864,0.013-16.921-4.796-23.881l-8.645-3.223
	c-2.201,5.668-6.149,10.506-8.527,16.101c-2.379,5.596-2.812,12.792,1.457,17.121C930.913,549.137,942.361,544.86,945.483,536.996z"
	/>
<path style="fill:#CD5961;" d="M924.191,620.4c1.464,0.688,3.13,1.173,4.693,0.752c2.106-0.567,3.442-2.578,4.583-4.438
	c3.983-6.496,8.097-13.428,8.105-21.049c0.005-7.621-5.927-15.78-13.525-15.198L918.883,593
	C911.512,600.932,914.391,615.794,924.191,620.4z"/>
<path style="fill:#CD5961;" d="M931.879,667.122c5.871-1.725,10.647-7.536,10.04-13.625c-0.887-8.885-11.071-13.202-19.646-15.692
	l-7.779,25.734C919.513,667.042,926.007,668.846,931.879,667.122z"/>
<path style="fill:#CD5961;" d="M900.863,726.387c3.056,6.676,9.886,11.463,17.204,12.062c3.912-8.668,5.811-18.238,5.503-27.744
	c-0.157-4.86-0.99-9.958-4.027-13.755c-3.038-3.798-8.838-5.725-12.949-3.127c1.581,10.596-1.459,21.797-8.179,30.141
	L900.863,726.387z"/>
<path style="fill:#CD5961;" d="M883.732,839.726c7.271,1.932,16.481,1.896,20.63-4.378c6.106-9.233-4.519-20.936-3.798-31.983
	c0.32-4.915,2.911-9.368,4.12-14.141c1.586-6.261,0.542-13.415-3.767-18.225c-4.308-4.811-12.129-6.521-17.536-2.987
	c-4.622,3.022-6.519,8.748-8.102,14.038c-3.529,11.791-7.058,23.581-10.587,35.371l-1.604,5.435
	c-2.034,4.307-2.534,9.319-1.39,13.943C868.89,834.594,876.461,837.795,883.732,839.726z"/>
<path style="fill:#CD5961;" d="M799.715,879.078c8.511-0.814,17.898-3.604,25.043,1.091c3.049,2.003,6.192,5.403,9.613,4.131
	c2.063-0.768,3.143-2.991,3.966-5.033c1.719-4.258,3.213-8.607,4.475-13.023c1.827-6.398,3.069-13.647-0.263-19.407
	c-3.332-5.76-13.092-7.633-16.36-1.836l-10.924,0.959c-6.911,8.378-16.967,14.097-27.702,15.754
	c-2.299,0.354-4.914,0.692-6.264,2.585c-0.627,0.878-0.872,1.98-0.906,3.059C780.125,875.904,791.205,879.893,799.715,879.078z"/>
<path style="fill:#CD5961;" d="M1571.335,1717.694c1.938,1.727,4.074,3.292,6.413,4.125c8.79,3.129,16.152-6.066,14.856-15.265
	c-1.299-9.199-8.23-17.359-15.34-24.055l-2.346,3.515c-7.224-1.962-13.635,4.142-13.875,11.471
	C1560.801,1704.815,1565.421,1712.423,1571.335,1717.694z"/>
<path style="fill:#CD5961;" d="M1677.386,1890.774c1.088,1.993,2.557,3.699,3.394,5.862c3.34,8.647-4.532,20.477,0.179,28.146
	c2.795,4.548,8.932,4.661,13.177,1.649c4.244-3.011,6.957-8.275,9.168-13.479c2.685-6.314,4.905-12.883,6.63-19.606l1.414-11.617
	c0.333-11.104-2.932-22.131-8.986-30.352c-2.012-2.733-4.763-5.334-7.886-4.793c-2.624,0.456-4.648,2.984-6.433,5.354
	C1679.692,1863.021,1670.848,1878.796,1677.386,1890.774z"/>
<path style="fill:#CD5961;" d="M1678.266,1767.577l0.055-13.253c-0.331-8.274-10.649-14.716-18.328-13.381
	c-7.677,1.336-12.784,7.792-16.573,14.428c-0.944,1.654-1.862,3.423-1.873,5.471c-0.016,2.974,1.908,5.971,4.226,8.183
	C1655.421,1778.234,1670.225,1775.551,1678.266,1767.577z"/>
<path style="fill:#CD5961;" d="M1666.853,1702.471l9.072-2.637c-2.619-6.546-3.266-13.464-5.693-20.058
	c-2.426-6.595-7.558-13.39-14.117-14.565c-9.125-1.636-14.649,9.592-11.07,18.718
	C1648.624,1693.056,1657.883,1699.259,1666.853,1702.471z"/>
<path style="fill:#CD5961;" d="M1586.244,1621.681c5.782,6.903,16.524,10.479,21.903,5.069l-2.495-17.236
	c-0.376-11.92-13.866-23.525-24.873-21.399c-1.644,0.318-3.29,0.95-4.168,2.334c-1.183,1.867-0.68,4.546-0.141,6.963
	C1578.351,1605.856,1580.462,1614.777,1586.244,1621.681z"/>
<path style="fill:#CD5961;" d="M1498.568,1570.035c-3.19,5.334-2.436,13.664,2.653,18.789c7.425,7.475,18.506,4.839,26.967,1.583
	l-13.58-28.3C1508.103,1562.162,1501.758,1564.702,1498.568,1570.035z"/>
<path style="fill:#CD5961;" d="M1521.466,1524.965c5.211,1.487,11.12-0.496,12.296-5.49c-9.257-8.577-15.435-20.674-16.621-32.546
	l-3.716-0.621c-7.41-4.081-16.279-4.028-22.34,0.133c3.585,10.363,9.397,20.249,16.852,28.657
	C1511.747,1519.398,1516.255,1523.478,1521.466,1524.965z"/>
<path style="fill:#CD5961;" d="M1413.107,1438.068c3.486,4.656,4.882,10.353,7.579,15.453c3.539,6.689,9.771,12.495,16.726,14.082
	c6.955,1.588,14.245-1.89,15.704-8.563c1.247-5.707-1.647-12.11-4.451-17.917c-6.248-12.944-12.497-25.887-18.747-38.83
	l-2.898-5.952c-1.711-5.207-5.135-10.067-9.523-13.518c-3.837,6.619-12.068,8.584-19.106,11.507
	c-7.037,2.924-14.068,8.874-12.484,17.221C1388.242,1423.834,1405.271,1427.604,1413.107,1438.068z"/>
<path style="fill:#CD5961;" d="M1447.669,1306.902c-0.187-1.197-0.836-2.353-1.628-3.352c-6.284-7.91-17.801-4.402-23.704,1.804
	c-5.905,6.206-10.979,14.763-20.019,15.105c-3.856,0.146-8.848-0.912-10.502,2.436c-0.999,2.021-0.136,4.727,0.783,7.106
	c1.917,4.96,4.075,9.858,6.46,14.667c3.458,6.968,8.01,14.329,14.938,17.404c6.927,3.074,15.827-1.502,13.929-8.851l7.642-7.888
	c-1.067-12.027,2.296-23.667,9.263-32.064C1446.325,1311.471,1448.072,1309.485,1447.669,1306.902z"/>
<path style="fill:#CD5961;" d="M1438.22,1739.15l-1.161,4.063c-7.479,0.336-11.721,8.105-9.714,15.158
	c2.006,7.054,8.727,12.889,15.968,16.104c2.373,1.053,4.884,1.892,7.367,1.972c9.325,0.296,13.53-10.707,9.489-19.071
	C1456.125,1749.012,1447.033,1743.357,1438.22,1739.15z"/>
<path style="fill:#CD5961;" d="M1631.715,1899.4c5.82,7.216,1.933,20.884,8.76,26.749c4.05,3.477,9.928,1.712,13.051-2.451
	c3.123-4.163,4.102-10.004,4.618-15.635c0.629-6.832,0.739-13.765,0.33-20.694l-2.198-11.495
	c-3.072-10.676-9.546-20.181-17.82-26.162c-2.75-1.989-6.164-3.626-8.973-2.158c-2.359,1.233-3.515,4.26-4.492,7.061
	c-4.568,13.103-8.177,30.824,1.704,40.236C1628.339,1896.419,1630.259,1897.596,1631.715,1899.4z"/>
<path style="fill:#CD5961;" d="M1547.459,1848.034c-6.903,3.616-9.797,11.323-11.378,18.797c-0.395,1.864-0.73,3.828-0.115,5.783
	c0.891,2.837,3.637,5.104,6.52,6.503c11.999,5.825,25.278-1.247,30.5-11.296l-3.991-12.637
	C1566.155,1847.406,1554.363,1844.421,1547.459,1848.034z"/>
<path style="fill:#CD5961;" d="M1486.17,1788.22c-9.19,1.228-11.023,13.605-4.829,21.204c6.192,7.6,16.904,10.681,26.426,11.002
	l7.833-5.279c-4.491-5.435-7.218-11.824-11.542-17.364C1499.734,1792.243,1492.774,1787.338,1486.17,1788.22z"/>
<path style="fill:#CD5961;" d="M1440.17,1714.969l-7.636-15.654c-3.995-11.236-20.384-18.171-30.217-12.787
	c-1.469,0.805-2.843,1.909-3.256,3.495c-0.558,2.139,0.74,4.536,1.99,6.674c4.366,7.465,9.1,15.316,16.712,20.127
	C1425.377,1721.635,1436.698,1721.762,1440.17,1714.969z"/>
<path style="fill:#CD5961;" d="M1322.445,1661.831c-1.409,6.053,1.85,13.757,8.261,17.083c9.353,4.853,19.101-1.039,26.164-6.722
	l-21.569-22.805C1329.124,1651.422,1323.856,1655.779,1322.445,1661.831z"/>
<path style="fill:#CD5961;" d="M1330.416,1602.116c-11.434-5.343-21.007-14.979-25.76-25.922l-3.729,0.542
	c-8.303-1.624-16.732,1.131-21.234,6.944c6.575,8.775,15.128,16.415,24.793,22.148c4.941,2.932,10.479,5.441,15.894,5.267
	C1325.799,1610.922,1330.819,1607.232,1330.416,1602.116z"/>
<path style="fill:#CD5961;" d="M1201.463,1526.861l-4.575-4.784c-3.219-4.436-7.964-8.019-13.195-9.967
	c-1.633,7.474-8.874,11.857-14.682,16.79c-5.81,4.931-10.689,12.743-6.633,20.208c5.97,10.985,23.338,9.379,33.992,16.953
	c4.74,3.37,7.81,8.37,11.935,12.402c5.412,5.29,13.117,8.917,20.225,8.306c7.107-0.61,12.989-6.148,12.342-12.948
	c-0.554-5.815-5.264-11.029-9.706-15.704C1221.265,1547.698,1211.364,1537.279,1201.463,1526.861z"/>
<path style="fill:#CD5961;" d="M1155.431,1430.056c-0.543-1.083-1.513-1.985-2.574-2.694c-8.398-5.615-18.296,1.24-22.023,8.951
	c-3.728,7.711-5.947,17.409-14.453,20.493c-3.629,1.316-8.704,1.831-9.257,5.524c-0.335,2.23,1.312,4.544,2.913,6.528
	c3.34,4.139,6.888,8.145,10.629,11.996c5.42,5.581,12.001,11.201,19.536,12.015c7.535,0.814,14.615-6.26,10.564-12.68l4.871-9.843
	c-4.686-11.128-5.036-23.24-0.965-33.362C1155.544,1434.817,1156.603,1432.393,1155.431,1430.056z"/>
<path style="fill:#CD5961;" d="M637.607,1775.215c-7.332-0.169-14.894,4.526-20.107,10.492c-1.708,1.955-3.251,4.107-4.061,6.454
	c-3.041,8.82,6.226,16.091,15.412,14.704c9.185-1.39,17.278-8.402,23.902-15.577l-3.537-2.311
	C651.105,1781.734,644.937,1775.384,637.607,1775.215z"/>
<path style="fill:#CD5961;" d="M487.218,1935.559c-11.167-8.239-27.028-16.927-38.94-10.27c-1.983,1.107-3.675,2.593-5.829,3.451
	c-8.615,3.425-20.521-4.329-28.144,0.459c-4.52,2.84-4.571,8.977-1.518,13.191c3.053,4.215,8.343,6.876,13.569,9.036
	c6.339,2.62,12.93,4.776,19.671,6.433l11.631,1.3c11.107,0.222,22.101-3.151,30.262-9.287c2.713-2.039,5.286-4.815,4.714-7.933
	C492.155,1939.321,489.606,1937.32,487.218,1935.559z"/>
<path style="fill:#CD5961;" d="M501.842,1847.014c-1.664-0.928-3.441-1.829-5.49-1.82c-2.974,0.014-5.951,1.966-8.141,4.306
	c-9.112,9.74-6.283,24.517,1.771,32.478l13.252-0.076c8.271-0.414,14.61-10.795,13.2-18.46
	C515.022,1855.779,508.516,1850.736,501.842,1847.014z"/>
<path style="fill:#CD5961;" d="M572.87,1811.697c-9.091,3.669-15.202,12.989-18.325,21.992l2.727,9.045
	c6.52-2.683,13.431-3.4,20.001-5.892c6.57-2.492,13.314-7.691,14.425-14.259C593.243,1813.44,581.962,1808.028,572.87,1811.697z"/>
<path style="fill:#CD5961;" d="M711.262,1768.408c-1.879-1.165-4.552-0.635-6.964-0.073c-8.424,1.963-17.323,4.164-24.17,10.014
	c-6.846,5.85-10.314,16.626-4.853,21.952l17.212-2.665c11.915-0.493,23.386-14.099,21.151-25.084
	C713.303,1770.912,712.656,1769.272,711.262,1768.408z"/>
<path style="fill:#CD5961;" d="M760.85,1703.556c-5.365-3.136-13.688-2.299-18.761,2.839c-7.402,7.5-4.656,18.554-1.317,26.982
	l28.165-13.86C768.819,1713.013,766.216,1706.693,760.85,1703.556z"/>
<path style="fill:#CD5961;" d="M819.659,1604.252c-4.262,3.853-8.296,8.402-9.733,13.627c-1.435,5.226,0.607,11.114,5.611,12.241
	c8.486-9.341,20.521-15.638,32.38-16.943l0.585-3.722c4.007-7.451,3.867-16.317-0.355-22.336
	C837.821,1590.805,827.993,1596.715,819.659,1604.252z"/>
<path style="fill:#CD5961;" d="M961.078,1533.145c-2.994-7.009-9.014-13.979-17.345-12.313c-12.258,2.454-15.86,19.52-26.246,27.458
	c-4.621,3.531-10.305,4.984-15.378,7.733c-6.653,3.604-12.397,9.894-13.915,16.864c-1.519,6.971,2.031,14.226,8.719,15.619
	c5.718,1.19,12.092-1.768,17.872-4.628c12.88-6.377,25.761-12.753,38.641-19.131l5.924-2.957c5.189-1.762,10.014-5.235,13.422-9.656
	C966.117,1548.365,964.07,1540.153,961.078,1533.145z"/>
<path style="fill:#CD5961;" d="M1033.022,1450.795c-0.184-3.855,0.825-8.855-2.541-10.477c-2.031-0.979-4.729-0.09-7.097,0.853
	c-4.942,1.966-9.817,4.172-14.603,6.605c-6.933,3.528-14.249,8.153-17.255,15.11c-3.005,6.957,1.659,15.812,8.989,13.842
	l7.963,7.563c12.016-1.185,23.689,2.061,32.155,8.945c1.812,1.474,3.816,3.201,6.395,2.773c1.196-0.199,2.345-0.859,3.335-1.662
	c7.848-6.363,4.226-17.845-2.038-23.685C1042.06,1464.819,1033.452,1459.832,1033.022,1450.795z"/>
<path style="fill:#CD5961;" d="M641.02,1557.827l-2.749-3.147c-5.641,6.069-10.888,13.455-10.684,21.739
	c0.208,8.283,8.551,16.508,16.324,13.637c2.068-0.765,3.833-2.186,5.386-3.753c4.74-4.781,7.901-11.655,6.538-18.248
	C654.472,1561.464,647.503,1556.014,641.02,1557.827z"/>
<path style="fill:#CD5961;" d="M477.958,1757.218c2.068-0.764,3.833-2.186,5.386-3.752c4.741-4.781,7.902-11.655,6.539-18.248
	c-1.364-6.59-8.333-12.04-14.816-10.229l-2.749-3.146c-5.641,6.07-10.889,13.455-10.683,21.739
	C461.842,1751.865,470.184,1760.089,477.958,1757.218z"/>
<path style="fill:#CD5961;" d="M570.494,1626.015c2.068-0.764,3.833-2.186,5.386-3.752c4.739-4.781,7.901-11.655,6.537-18.248
	c-1.363-6.592-8.331-12.041-14.816-10.229l-2.748-3.147c-5.642,6.069-10.889,13.456-10.684,21.74
	C554.378,1620.662,562.72,1628.886,570.494,1626.015z"/>
<path style="fill:#CD5961;" d="M568.443,1690.12c0.039-2.631-0.01-5.516-1.718-7.515c-2.035-2.38-5.622-2.579-8.732-2.211
	c-9.354,1.102-18.242,5.762-24.47,12.827l-5.714,8.089c-2.625,5.275-4.785,10.78-6.45,16.431c-1.371,4.657-2.4,9.68-0.964,14.317
	c1.439,4.638,6.122,8.589,10.879,7.616c8.02-1.641,8.997-14.092,16.557-17.236c1.891-0.786,3.991-0.876,5.974-1.392
	C565.712,1717.945,568.26,1702.424,568.443,1690.12z"/>
<path style="fill:#CD5961;" d="M540.53,1664.73c1.834-2.005,3.176-4.713,2.701-7.389c-0.328-1.843-1.465-3.428-2.609-4.91
	c-4.587-5.944-10.386-11.72-17.806-12.872c-7.42-1.151-16.116,4.712-15.145,12.157l2.106,11.922
	C518.567,1670.76,532.892,1673.077,540.53,1664.73z"/>
<path style="fill:#CD5961;" d="M616.257,1566.397c1.948-8.235-4.982-18.299-13.303-16.768c-5.979,1.101-9.747,7.247-11.005,13.195
	c-1.258,5.948-0.795,12.176-2.24,18.082l8.932,2.313C606.571,1580.271,614.31,1574.632,616.257,1566.397z"/>
<path style="fill:#CD5961;" d="M626.881,1520.78c5.893,4.831,15.43,1.545,19.793-4.704c4.362-6.248,4.962-14.289,5.42-21.895
	c0.132-2.178,0.189-4.591-1.212-6.263c-1.039-1.24-2.683-1.797-4.278-2.073c-10.671-1.841-21.547,8.686-20.052,19.412
	L626.881,1520.78z"/>
<path style="fill:#CD5961;" d="M680.1,1468.881c3.986-4.642,3.403-12.141-0.42-16.919c-3.823-4.777-10.18-7.021-16.299-7.027
	l-8.373,25.547C663.462,1473.356,674.282,1475.655,680.1,1468.881z"/>
<path style="fill:#CD5961;" d="M686.664,1420.449c4.665-1.373,8.268-5.072,11.182-8.965c5.7-7.613,9.629-16.545,11.391-25.891
	c-6.34-3.704-14.68-3.693-21.011,0.026l-3.395,0.583c0.726,10.688-3.203,21.611-10.57,29.388
	C676.141,1420.077,681.999,1421.821,686.664,1420.449z"/>
<path style="fill:#CD5961;" d="M713.836,1349.091c6.289-1.473,11.244-6.737,13.532-12.777c1.744-4.605,2.173-9.74,4.726-13.951
	c5.739-9.465,21.154-12.968,21.442-24.033c0.195-7.52-7.333-12.827-14.398-15.411c-7.066-2.584-15.104-4.299-19.735-10.227
	c-3.587,3.133-6.05,7.527-6.851,12.223l-1.8,5.373c-3.866,11.685-7.73,23.37-11.595,35.054c-1.733,5.243-3.46,11.021-1.404,16.147
	C700.159,1347.484,707.548,1350.565,713.836,1349.091z"/>
<path style="fill:#CD5961;" d="M713.987,1215.982c-8.547-0.248-14.641-7.914-21.15-13.458c-6.507-5.545-17.872-8.625-22.55-1.468
	c-0.591,0.903-1.021,1.946-1.011,3.025c0.023,2.326,1.973,4.101,3.653,5.709c7.848,7.509,12.811,17.959,13.673,28.786l8.402,7.045
	c-0.645,6.623,8.427,10.682,14.459,7.872c6.033-2.811,9.169-9.463,11.337-15.754c1.497-4.342,2.764-8.763,3.797-13.237
	c0.496-2.146,0.886-4.587-0.367-6.398C722.157,1215.102,717.632,1216.088,713.987,1215.982z"/>
<path style="fill:#CD5961;" d="M550.394,918.095c4.894,4.624,12.404,5.543,18.962,4.021c2.148-0.498,4.285-1.253,6.022-2.613
	c6.526-5.106,3.91-16.525-3.03-21.052c-6.94-4.526-15.983-3.94-24.111-2.327l1.234,3.991
	C544.524,904.681,545.501,913.474,550.394,918.095z"/>
<path style="fill:#CD5961;" d="M700.167,907.836c10.567,6.307,25.112,12.29,34.006,3.786c1.481-1.415,2.661-3.157,4.323-4.353
	c6.644-4.781,17.754,0.927,23.362-5.037c3.327-3.536,2.424-9.598-0.767-13.257c-3.191-3.658-8.005-5.422-12.689-6.699
	c-5.684-1.552-11.503-2.604-17.37-3.141l-9.884,0.614c-9.283,1.589-17.917,6.707-23.768,14.088c-1.945,2.452-3.66,5.61-2.704,8.591
	C695.477,904.931,697.909,906.488,700.167,907.836z"/>
<path style="fill:#CD5961;" d="M642.506,909.682c2.026,1.811,5.037,2.091,7.708,1.583c11.115-2.116,16.666-15.523,15.222-26.744
	l-9.039-8.054c-5.824-4.737-15.381-0.416-18.299,6.503c-2.916,6.92-1.048,14.887,1.602,21.913
	C640.358,906.635,641.11,908.435,642.506,909.682z"/>
<path style="fill:#CD5961;" d="M569.77,883.545c8.03,2.668,16.894-0.955,23.567-6.155l2.722-8.816
	c-5.784-1.872-10.841-5.538-16.563-7.591c-5.723-2.055-12.932-2.076-17.009,2.434C556.815,869.695,561.741,880.877,569.77,883.545z"
	/>
<path style="fill:#CD5961;" d="M489.495,876.113c6.713,3.606,13.87,7.317,21.479,6.885c7.608-0.43,15.414-6.819,14.398-14.372
	l-13.036-8.432c-8.343-6.905-23.013-3.18-27.052,6.869c-0.603,1.501-0.992,3.193-0.482,4.728
	C485.488,873.863,487.573,875.081,489.495,876.113z"/>
<path style="fill:#CD5961;" d="M453.257,886.658c8.82-1.393,12.546-11.809,14.541-20.512l-26.138-6.293
	c-3.209,5.211-4.638,11.798-2.581,17.562C441.137,883.177,447.212,887.612,453.257,886.658z"/>
<path style="fill:#CD5961;" d="M395.092,871.614c4.844-0.435,9.884-1.559,13.502-4.808c3.618-3.249,5.21-9.151,2.38-13.106
	c-10.487,2.184-21.846-0.209-30.56-6.439l-2.279,2.582c-6.49,3.433-10.878,10.525-11.056,17.865
	C375.956,871.118,385.619,872.465,395.092,871.614z"/>
<path style="fill:#CD5961;" d="M269.552,859.575c9.568,5.567,20.645-5.712,31.713-5.624c4.924,0.039,9.519,2.37,14.354,3.304
	c6.342,1.225,13.423-0.227,17.98-4.804c4.556-4.577,5.815-12.484,1.978-17.678c-3.283-4.442-9.107-6.007-14.479-7.286
	c-11.973-2.848-23.946-5.697-35.92-8.543l-5.518-1.291c-4.417-1.784-9.449-1.996-14-0.589c2.613,7.054-0.15,14.796-1.661,22.165
	C262.489,846.598,263.052,855.792,269.552,859.575z"/>
<path style="fill:#CD5961;" d="M186.016,812.453c8.34,1.888,18.128,2.172,23.448,8.865c2.27,2.855,4.193,7.067,7.839,6.928
	c2.2-0.084,3.92-1.858,5.34-3.541c2.965-3.508,5.743-7.172,8.322-10.971c3.737-5.507,7.182-12.004,5.817-18.518
	c-1.365-6.513-10.051-11.342-14.968-6.858l-10.675-2.503c-9.184,5.798-20.525,8.088-31.238,6.306
	c-2.294-0.381-4.883-0.878-6.759,0.498c-0.868,0.638-1.447,1.607-1.816,2.622C168.399,803.316,177.676,810.568,186.016,812.453z"/>
<path style="fill:#CD5961;" d="M310.387,898.138c-2.175-0.371-4.437-0.5-6.564,0.081c-7.994,2.187-9.993,13.73-5.342,20.588
	c4.651,6.857,13.218,9.811,21.337,11.465l0.405-4.158c6.328-2.299,8.825-10.786,6.099-16.939
	C323.594,903.018,317.022,899.267,310.387,898.138z"/>
<path style="fill:#CD5961;" d="M154.321,844.112c-1.912,0.733-3.672,1.882-5.667,2.343c-7.977,1.842-16.016-7.716-23.494-4.385
	c-4.435,1.977-5.945,7.916-4.417,12.524c1.53,4.607,5.289,8.094,9.114,11.083c4.642,3.628,9.603,6.848,14.807,9.611l9.353,3.255
	c9.176,2.122,19.118,0.739,27.365-3.807c2.741-1.51,5.546-3.759,5.815-6.878c0.226-2.62-1.413-4.995-2.976-7.112
	C176.913,850.847,165.812,839.706,154.321,844.112z"/>
<path style="fill:#CD5961;" d="M231.62,876.893c-11.07-2.345-21.372,7.874-24.376,18.782l5.223,10.921
	c3.542,6.621,14.026,6.329,19.392,1.076c5.364-5.254,6.72-13.325,6.992-20.829c0.068-1.871,0.07-3.822-0.734-5.511
	C236.946,878.878,234.278,877.456,231.62,876.893z"/>
<path style="fill:#CD5961;" d="M270.981,930.118l-5.918,7.078c4.611,3.963,7.858,9.298,12.342,13.404
	c4.484,4.106,11.124,6.912,16.628,4.328c7.659-3.596,7.438-15.813,1.063-21.378C288.721,927.987,279.147,927.902,270.981,930.118z"
	/>
<path style="fill:#CD5961;" d="M349.113,956.779c-7.183-2.544-16.853,0.333-18.835,7.691l8.764,12.816
	c5.026,9.592,19.997,11.827,27.604,4.12c1.136-1.152,2.148-2.561,2.273-4.175c0.167-2.175-1.285-4.104-2.659-5.799
	C361.462,965.512,356.297,959.323,349.113,956.779z"/>
<path style="fill:#CD5961;" d="M403.758,975.714c-8.673-2.124-16.136,6.041-21.339,13.297l21.673,15.906
	c4.975-3.566,8.838-9.088,9.168-15.199C413.591,983.609,409.702,977.169,403.758,975.714z"/>
<path style="fill:#CD5961;" d="M437.277,1011.285c-4.593,1.599-8.342,6.426-7.261,11.168c10.516,2.038,20.067,8.636,25.695,17.751
	l3.101-1.501c7.312-0.659,14.101-5.502,17.101-12.204c-6.87-6.576-15.262-11.554-24.327-14.43
	C446.952,1010.599,441.87,1009.687,437.277,1011.285z"/>
<path style="fill:#CD5961;" d="M531.295,1064.625c-4.527-1.939-7.863-5.866-11.961-8.596c-5.375-3.581-12.468-4.98-18.44-2.519
	c-5.972,2.461-10.189,9.266-8.656,15.539c1.31,5.366,6.076,9.061,10.537,12.316c9.942,7.254,19.883,14.51,29.826,21.763l4.589,3.323
	c3.384,3.353,7.944,5.493,12.685,5.955c0.317-7.516,5.856-13.589,10.098-19.8c4.243-6.212,7.278-14.909,2.745-20.911
	C556.046,1062.864,541.471,1068.984,531.295,1064.625z"/>
<path style="fill:#CD5961;" d="M638.764,1147.443c-6.962-4.965-15.88-9.009-18.2-17.238c-0.99-3.511-1.135-8.14-4.552-9.42
	c-2.062-0.773-4.334,0.199-6.295,1.201c-4.089,2.09-8.068,4.396-11.916,6.903c-5.574,3.635-11.263,8.296-12.521,14.83
	c-1.258,6.534,4.886,14.346,11.153,12.11l8.878,6.435c10.711-1.798,22.056,0.474,31.248,6.258c1.967,1.239,4.164,2.698,6.425,2.153
	c1.049-0.252,1.956-0.924,2.689-1.717C651.478,1162.68,645.725,1152.406,638.764,1147.443z"/>
<path d="M1226.598,1031.62c-7.401,0-13.4,17.843-13.4,39.854c0,22.011,5.999,39.855,13.4,39.855
	c7.399,0,13.398-17.844,13.398-39.855C1239.996,1049.463,1233.997,1031.62,1226.598,1031.62z"/>
<path d="M922.132,1031.62c-7.401,0-13.399,17.843-13.399,39.854c0,22.011,5.999,39.855,13.399,39.855
	c7.399,0,13.398-17.844,13.398-39.855C935.53,1049.463,929.531,1031.62,922.132,1031.62z"/>
<path d="M1074.367,1228.328c-32.497,0-58.938-26.438-58.938-58.935h-11.05c0,38.59,31.396,69.985,69.988,69.985
	c38.587,0,69.983-31.396,69.983-69.985h-11.05C1133.3,1201.889,1106.864,1228.328,1074.367,1228.328z"/>
<path d="M919.229,1307.701c-46.241,59.961-123.067,159.675-188.862,245.53c-66.372,86.604-121.52,159.106-122.718,162.455
	l6.84,2.446l3.289,1.895c3.124-5.421,59.506-79.365,125.652-165.629c66.304-86.471,142.42-185.32,184.55-239.948L919.229,1307.701z"
	/>
<path d="M765.841,1035.01c-57.795-20.921-127.111-46.101-190.667-69.313c-99.137-36.206-184.269-67.624-189.829-70.621l-2.924,4.672
	l-3.693,4.11c2.756,2.477,89.722,34.682,197.418,73.994c59.227,21.62,124.717,45.387,185.933,67.545L765.841,1035.01z"/>
<rect x="1055.136" y="384.148" width="11.05" height="487.9"/>
<path d="M1822.59,892.53c-74.723,22.408-185.34,55.451-276.051,82.276c-82.779,24.479-148.981,43.78-156.158,45.083l1.978,10.87
	c7.603-1.381,73.283-20.527,151.341-43.597c121.019-35.767,271.795-80.969,282.066-84.05L1822.59,892.53z"/>
<polygon points="1275.272,1377.582 1392.309,1533.884 1587.404,1794.434 1596.251,1787.808 1394.589,1518.491 1284.12,1370.961 "/>
</svg>
